<?xml version="1.0" encoding="UTF-8"?><svg id="Lager_1" xmlns="http://www.w3.org/2000/svg" viewBox="0 0 173.54 116.43"><defs><style>.cls-1{fill:#fff;}.cls-2{fill:#336734;}.cls-3{fill:#329946;}.cls-4{fill:#77c585;}</style></defs><g id="Artboard1"><g><path class="cls-2" d="M74.28,50.88v-.97l-11.28-6.51v13.99l11.28-6.51Z"/><path class="cls-4" d="M75.11,22.41V9.39l-.84-.49-11.28,6.51,12.12,7Z"/><path class="cls-4" d="M50.88,50.4l12.12-7-12.12-7v13.99Z"/><path class="cls-4" d="M63,43.4l10.2-5.89c-.19-.33-.31-.7-.31-1.11s.12-.78,.31-1.1l-10.2-5.89v13.99Z"/><path class="cls-3" d="M73.2,37.51l-10.2,5.89,11.28,6.51v-11.48c-.45-.19-.83-.51-1.08-.92Z"/><path class="cls-3" d="M63,57.4v-13.99l-12.12,7,12.12,7Z"/><path class="cls-3" d="M83.97,30.32c-.08-.29-.13-.59-.13-.91,0-.62,.18-1.19,.47-1.69l-9.19-5.31v11.78c.51,0,.96,.19,1.33,.48l7.52-4.34Z"/><path class="cls-3" d="M62.99,15.42v13.99l12.12-7-12.12-7Z"/><path class="cls-2" d="M62.99,29.41h0s10.2,5.89,10.2,5.89c.38-.66,1.09-1.11,1.91-1.11,0,0,0,0,0,0v-11.78l-12.12,7Z"/><path class="cls-2" d="M100.71,34.68l9.95-5.74-11.3-6.53v11.78c.52,0,.98,.19,1.36,.49Z"/><path class="cls-3" d="M99.36,22.41l12.12-7-12.12-7v13.99Z"/><path class="cls-4" d="M99.36,22.41l11.3,6.53,.82-.47V15.42l-12.12,7Z"/><path class="cls-4" d="M90.62,29.41c0,.32-.05,.62-.13,.91l7.53,4.35c.37-.29,.83-.48,1.34-.48v-11.78l-9.2,5.31c.29,.5,.47,1.07,.47,1.69Z"/><path class="cls-2" d="M99.34,50.4h0s0,0,0,0h0s0,0,0,0Z"/><path class="cls-2" d="M99.36,38.62h0v11.77l12.11-6.99-10.2-5.89c-.38,.66-1.09,1.11-1.91,1.11Z"/><path class="cls-4" d="M101.57,36.41c0,.41-.12,.78-.31,1.11l10.2,5.89v-12.99l-9.93,5.73c.01,.09,.04,.17,.04,.26Z"/><path class="cls-4" d="M87.23,32.8c-.95,0-1.8-.4-2.42-1.03l-7.53,4.35c.01,.1,.04,.19,.04,.29,0,.4-.12,.78-.3,1.1l10.21,5.89v-10.6Z"/><path class="cls-4" d="M87.23,43.4v13.99l12.12-7h0s0,0,0,0l-12.11-6.99Z"/><path class="cls-3" d="M77.02,37.51c-.24,.42-.62,.73-1.06,.92v11.48l11.27-6.51-10.21-5.89Z"/><path class="cls-2" d="M97.44,37.51c-.19-.32-.3-.7-.3-1.1,0-.1,.03-.19,.04-.28l-7.53-4.35c-.61,.63-1.46,1.03-2.41,1.03v10.6l10.21-5.9Z"/><path class="cls-3" d="M97.44,37.51l-10.21,5.89,12.11,6.99h0s0,0,0,0v-11.78c-.82,0-1.53-.45-1.91-1.11Z"/><path class="cls-2" d="M75.96,49.91v.98l11.27,6.51v-13.99l-11.27,6.51Z"/><path class="cls-2" d="M85.32,16.52c-.19-.33-.31-.7-.31-1.1,0-.1,.03-.19,.04-.29l-9.94-5.74v13.02l10.21-5.89Z"/><path class="cls-4" d="M75.12,22.41l9.19,5.3c.45-.78,1.2-1.36,2.09-1.59v-8.68c-.45-.19-.83-.51-1.08-.92l-10.2,5.89Z"/><path class="cls-2" d="M89.14,14.32c.19,.33,.3,.7,.3,1.1s-.12,.78-.3,1.1l10.21,5.9V8.42l-10.21,5.9Z"/><path class="cls-3" d="M88.08,17.44v8.7c.89,.23,1.63,.81,2.08,1.59l9.2-5.31-10.21-5.9c-.24,.42-.62,.73-1.07,.92Z"/><path class="cls-2" d="M87.23,13.2s0,0,0,0V1.42l-11.28,6.51,9.94,5.74c.37-.29,.82-.47,1.33-.47Z"/><path class="cls-4" d="M89.14,14.32l10.21-5.9h0s-12.12-7-12.12-7V13.2c.82,0,1.52,.45,1.91,1.12Z"/></g></g><g><path class="cls-1" d="M89.77,101.62v-7.56h1.57c1.13,0,1.95,.09,2.46,.27,.73,.26,1.31,.7,1.72,1.34,.41,.63,.62,1.39,.62,2.27,0,.76-.16,1.42-.49,2-.33,.58-.75,1-1.28,1.27-.52,.27-1.26,.41-2.2,.41h-2.41Zm.73-.71h.87c1.05,0,1.77-.06,2.17-.2,.57-.18,1.02-.52,1.34-1,.33-.48,.49-1.07,.49-1.76,0-.73-.18-1.35-.53-1.87-.35-.52-.85-.87-1.48-1.06-.47-.14-1.25-.22-2.34-.22h-.53v6.11Z"/><path class="cls-1" d="M97.61,94.06h4.33v.74h-3.58v2.37h3.55v.74h-3.55v2.97h3.55v.74h-4.3v-7.56Z"/><path class="cls-1" d="M103.25,101.62v-7.56h.16l5.03,5.8v-5.8h.75v7.56h-.17l-4.99-5.73v5.73h-.78Z"/><path class="cls-1" d="M110.69,101.62l1.08-7.56h.12l3.07,6.21,3.04-6.21h.12l1.09,7.56h-.74l-.75-5.41-2.67,5.41h-.19l-2.71-5.45-.74,5.45h-.73Z"/><path class="cls-1" d="M123.8,94.06l3.53,7.56h-.82l-1.19-2.49h-3.26l-1.18,2.49h-.84l3.57-7.56h.18Zm-.1,1.61l-1.3,2.74h2.59l-1.29-2.74Z"/><path class="cls-1" d="M128.54,94.06h1.51c.84,0,1.41,.03,1.71,.1,.45,.1,.81,.32,1.09,.66,.28,.34,.42,.75,.42,1.25,0,.41-.1,.77-.29,1.09-.19,.31-.47,.55-.83,.71-.36,.16-.86,.24-1.49,.24l2.72,3.51h-.93l-2.72-3.51h-.43v3.51h-.76v-7.56Zm.76,.74v2.57h1.3c.5,.01,.88-.04,1.12-.13,.24-.1,.43-.25,.57-.46s.2-.45,.2-.71-.07-.48-.21-.69-.32-.36-.54-.44c-.22-.09-.59-.13-1.11-.13h-1.33Z"/><path class="cls-1" d="M134.89,94.06h.77v2.84l3.02-2.84h1.02l-3.63,3.39,3.91,4.17h-1.01l-3.31-3.52v3.52h-.77v-7.56Z"/><path class="cls-1" d="M90.07,109.42h-.72c.02-.75,.27-1.36,.75-1.84s1.07-.72,1.77-.72,1.26,.22,1.69,.67c.43,.45,.65,.98,.65,1.59,0,.43-.1,.83-.31,1.21-.2,.38-.6,.88-1.19,1.52l-1.88,2.03h3.49v.73h-5.14l2.89-3.12c.59-.63,.97-1.09,1.14-1.4,.18-.3,.26-.62,.26-.96,0-.43-.16-.79-.48-1.1-.32-.31-.71-.46-1.16-.46-.48,0-.89,.16-1.21,.48-.32,.32-.5,.77-.55,1.36Z"/><path class="cls-1" d="M95.02,110.84c0-1,.11-1.77,.32-2.31,.21-.55,.52-.96,.91-1.24s.83-.42,1.31-.42,.93,.14,1.33,.42c.4,.28,.71,.71,.94,1.27,.23,.57,.35,1.32,.35,2.28s-.11,1.7-.34,2.27-.54,.99-.94,1.27-.85,.43-1.34,.43-.92-.14-1.31-.42c-.39-.28-.69-.69-.91-1.24s-.33-1.32-.33-2.31Zm.71,.01c0,.85,.08,1.5,.23,1.94,.15,.44,.38,.77,.68,1,.3,.23,.61,.34,.95,.34s.65-.11,.94-.33,.51-.55,.66-1c.19-.54,.28-1.19,.28-1.95s-.08-1.38-.25-1.87c-.17-.49-.4-.84-.7-1.07-.3-.22-.61-.34-.94-.34s-.65,.11-.95,.34c-.29,.22-.52,.56-.67,.99s-.23,1.08-.23,1.94Z"/><path class="cls-1" d="M101.74,109.42h-.72c.02-.75,.27-1.36,.75-1.84s1.07-.72,1.77-.72,1.26,.22,1.69,.67c.43,.45,.65,.98,.65,1.59,0,.43-.1,.83-.31,1.21-.2,.38-.6,.88-1.19,1.52l-1.88,2.03h3.49v.73h-5.14l2.89-3.12c.59-.63,.97-1.09,1.14-1.4,.18-.3,.26-.62,.26-.96,0-.43-.16-.79-.48-1.1-.32-.31-.71-.46-1.16-.46-.48,0-.89,.16-1.21,.48-.32,.32-.5,.77-.55,1.36Z"/><path class="cls-1" d="M107.57,109.42h-.72c.02-.75,.27-1.36,.75-1.84s1.07-.72,1.77-.72,1.26,.22,1.69,.67c.43,.45,.65,.98,.65,1.59,0,.43-.1,.83-.31,1.21-.2,.38-.6,.88-1.19,1.52l-1.88,2.03h3.49v.73h-5.14l2.89-3.12c.59-.63,.97-1.09,1.14-1.4,.18-.3,.26-.62,.26-.96,0-.43-.16-.79-.48-1.1-.32-.31-.71-.46-1.16-.46-.48,0-.89,.16-1.21,.48-.32,.32-.5,.77-.55,1.36Z"/><path class="cls-1" d="M2.04,77.63l5.9-.35c.12,.93,.41,1.69,.76,2.22,.64,.82,1.58,1.23,2.74,1.23,.88,0,1.58-.23,2.04-.64,.47-.41,.7-.88,.7-1.46,0-.53-.23-.99-.7-1.4-.47-.41-1.52-.82-3.15-1.17-2.74-.58-4.67-1.4-5.84-2.45-1.17-.99-1.75-2.28-1.75-3.85,0-1.05,.29-1.98,.88-2.92,.58-.93,1.52-1.63,2.69-2.16,1.17-.53,2.86-.76,4.9-.76,2.57,0,4.49,.47,5.84,1.4,1.34,.93,2.16,2.45,2.39,4.55l-5.84,.35c-.18-.88-.47-1.58-.99-1.98-.53-.41-1.17-.64-2.04-.64-.7,0-1.28,.18-1.63,.47-.35,.29-.52,.7-.52,1.11,0,.29,.18,.58,.47,.88,.29,.29,.99,.53,2.1,.76,2.68,.58,4.67,1.17,5.84,1.75,1.17,.58,2.04,1.34,2.57,2.22,.53,.88,.82,1.87,.82,2.98,0,1.28-.35,2.45-1.05,3.56-.7,1.11-1.69,1.93-2.98,2.45-1.28,.53-2.86,.82-4.84,.82-3.39,0-5.78-.64-7.06-1.98-1.28-1.34-2.04-2.98-2.22-4.96Z"/><path class="cls-1" d="M23.17,64.2h6.19v20.08h-6.19v-20.08Z"/><path class="cls-1" d="M43.37,76.98v-4.14h9.57v8.52c-1.81,1.23-3.44,2.1-4.84,2.57-1.4,.47-3.09,.7-5.02,.7-2.39,0-4.32-.41-5.84-1.23-1.52-.82-2.69-2.04-3.5-3.62-.82-1.58-1.23-3.44-1.23-5.55,0-2.22,.47-4.09,1.34-5.72,.88-1.63,2.22-2.86,3.97-3.68,1.34-.64,3.21-.99,5.49-.99s3.85,.18,4.96,.58c1.11,.41,1.98,1.05,2.74,1.87,.76,.82,1.28,1.93,1.63,3.21l-5.95,1.05c-.23-.76-.64-1.34-1.23-1.75-.58-.41-1.34-.58-2.28-.58-1.34,0-2.45,.47-3.27,1.4-.82,.93-1.23,2.45-1.23,4.49,0,2.16,.41,3.74,1.23,4.67,.82,.93,1.93,1.4,3.39,1.4,.7,0,1.34-.12,1.98-.29s1.34-.53,2.16-1.05v-1.87h-4.09Z"/><path class="cls-1" d="M102.97,84.63v-20.08h10.33c1.93,0,3.39,.18,4.38,.47,.99,.29,1.81,.93,2.45,1.81,.64,.88,.93,1.98,.93,3.27,0,1.11-.23,2.1-.7,2.86-.47,.82-1.11,1.46-1.98,1.98-.53,.29-1.28,.58-2.16,.82,.76,.23,1.28,.47,1.63,.76,.23,.18,.58,.53,.99,1.05,.41,.53,.7,.93,.88,1.23l2.98,5.84h-7l-3.33-6.13c-.41-.82-.82-1.28-1.11-1.52-.47-.29-.93-.47-1.52-.47h-.53v8.11h-6.25Zm6.25-11.91h2.63c.29,0,.82-.12,1.64-.29,.41-.06,.76-.29,.99-.64,.23-.35,.41-.7,.41-1.17,0-.64-.23-1.17-.64-1.52-.41-.35-1.17-.53-2.34-.53h-2.74v4.14h.06Z"/><path class="cls-1" d="M123.1,64.55h6.19v20.08h-6.19v-20.08Z"/><path class="cls-1" d="M131.74,64.55h5.78l7.53,11.09v-11.09h5.84v20.08h-5.84l-7.47-11.03v11.03h-5.84v-20.08Z"/><path class="cls-1" d="M152.4,64.55h18.85v4.96h-6.3v15.12h-6.19v-15.12h-6.3v-4.96h-.06Z"/><path class="cls-1" d="M3.15,94.32H13.43c2.22,0,3.91,.53,5.02,1.58,1.11,1.05,1.69,2.57,1.69,4.55s-.58,3.62-1.81,4.73c-1.23,1.11-3.09,1.69-5.6,1.69h-3.39v7.47H3.09v-20.02h.06Zm6.19,8.52h1.52c1.17,0,2.04-.23,2.51-.64,.47-.41,.7-.93,.7-1.58s-.23-1.17-.64-1.58c-.41-.41-1.23-.64-2.39-.64h-1.75v4.44h.06Z"/><path class="cls-1" d="M33.04,111.01h-7.06l-.99,3.33h-6.3l7.53-20.02h6.77l7.53,20.08h-6.48l-.99-3.39Zm-1.28-4.32l-2.22-7.24-2.22,7.24h4.44Z"/><path class="cls-1" d="M54.11,106.11l5.43,1.63c-.35,1.52-.93,2.8-1.75,3.79-.82,.99-1.75,1.81-2.92,2.34-1.17,.52-2.63,.76-4.44,.76-2.16,0-3.97-.29-5.37-.93-1.4-.64-2.57-1.75-3.56-3.33-.99-1.58-1.52-3.62-1.52-6.13,0-3.33,.88-5.9,2.63-7.65,1.75-1.75,4.26-2.69,7.47-2.69,2.51,0,4.5,.53,5.95,1.52,1.46,.99,2.51,2.57,3.21,4.73l-5.49,1.23c-.18-.58-.41-1.05-.58-1.34-.35-.47-.76-.82-1.28-1.11-.53-.29-1.05-.41-1.69-.41-1.4,0-2.45,.58-3.21,1.69-.58,.82-.88,2.16-.88,3.97,0,2.22,.35,3.74,.99,4.55,.7,.82,1.63,1.23,2.86,1.23s2.1-.35,2.68-.99c.58-.64,1.23-1.58,1.46-2.86Z"/><path class="cls-1" d="M78.45,98.06c-2.04-.41-3.91-1.52-5.25-2.98l-5.84,6.77v-7.59h-6.19v20.08h6.19v-4.9l3.21-3.33,4.2,8.23h7.65l-7.65-12.49,3.68-3.79Z"/><path class="cls-1" d="M75.59,79.44v-15.23h-5.84v11.09l-7.53-11.09h-5.78v20.08h5.84v-11.03l7.53,11.03h1.52c.82-2.1,2.34-3.74,4.26-4.84Z"/><path class="cls-1" d="M100.4,66.19c-1.11-1.05-2.8-1.58-5.02-1.58h-10.27v14.59c2.22,1.11,3.97,3.09,4.9,5.43h1.34v-7.41h3.39c2.51,0,4.38-.58,5.6-1.69,1.23-1.11,1.81-2.74,1.81-4.73-.06-2.04-.64-3.56-1.75-4.61Zm-5.08,6.3c-.47,.41-1.34,.64-2.51,.64h-1.52v-4.49h1.75c1.17,0,1.93,.23,2.39,.64s.64,.99,.64,1.58c0,.7-.23,1.23-.76,1.63Z"/><path class="cls-1" d="M82.65,88.07l1.63,.47c-.06,.41-.18,.7-.23,.93-.06,.23-.18,.52-.35,.82l.76,.7c.12,.06,.23,.18,.35,.29l-1.11,1.63c-.18-.12-.41-.29-.64-.47-.23-.17-.41-.35-.58-.47-.35,.29-.7,.53-1.11,.64-.53,.17-1.05,.29-1.69,.29-.99,0-1.75-.29-2.22-.82-.47-.52-.7-1.17-.7-1.93,0-.53,.12-1.05,.41-1.58,.29-.47,.76-.88,1.4-1.23-.29-.41-.47-.82-.58-1.11-.12-.29-.18-.64-.18-.93,0-.7,.18-1.23,.58-1.69,.41-.47,.99-.64,1.87-.64,.82,0,1.46,.23,1.87,.64,.41,.41,.58,.93,.58,1.52,0,.35-.06,.64-.18,.93-.12,.29-.29,.53-.41,.76-.18,.17-.47,.47-.93,.82,.35,.47,.76,.88,1.11,1.28,.18-.29,.29-.58,.35-.88Zm-3.15,.64c-.29,.23-.47,.47-.58,.64-.12,.18-.12,.35-.12,.58,0,.29,.12,.58,.35,.88,.23,.29,.47,.35,.82,.35s.76-.18,1.22-.58c-.41-.41-.99-1.05-1.69-1.87Zm.76-2.33c.29-.18,.47-.41,.64-.64,.18-.23,.23-.41,.23-.64s-.06-.41-.18-.53c-.12-.12-.29-.23-.53-.23s-.41,.06-.53,.23c-.12,.18-.18,.35-.18,.58-.06,.29,.18,.7,.53,1.23Z"/></g></svg>