<?xml version="1.0" encoding="UTF-8"?><svg id="Layer_1" xmlns="http://www.w3.org/2000/svg" viewBox="0 0 477.46 403.22"><path d="M55.05,385.24v-51.4h16.9v6.2h-10.1v15.5h8.9v6.3h-8.9v17.3h10.1v6.1h-16.9Z" fill="#fff"/><path d="M91.75,385.24v-29.8c0-3.6-1.4-5.4-3.9-5.4s-3.9,1.7-3.9,5.4v29.8h-6.7v-40.6h6.5v2.5c.7-1.8,3.4-3.1,5.7-3.1,6.4,0,9,3.9,9,11v30.2h-6.7Z" fill="#fff"/><path d="M121.35,385.24c-.6-1.5-.8-2.6-.8-5.1v-12.2c0-3.2-1.3-5.3-4.2-5.3h-3.8v22.6h-6.8v-51.4h10.6c7.8,0,11,4.4,11,11.2v6.9c0,3.5-1.8,6.1-4.3,7.4,2.8,1.2,4.3,4.3,4.3,8.2v11.8c0,2,.3,4.3,1,5.8h-6.9l-.1.1ZM120.65,345.34c0-3.2-1.3-5.3-4.2-5.3h-3.8v16.9h3.8c2.8,0,4.2-2,4.2-5.3v-6.3h0Z" fill="#fff"/><path d="M134.25,338.64v-8h6.7v8h-6.7ZM134.25,385.24v-40.6h6.7v40.6h-6.7Z" fill="#fff"/><path d="M158.35,400.54c-6.8,0-10.8-4-10.8-11v-1.1h6.7v.7c0,3.6,1.6,5.4,4.1,5.4s4.1-1.7,4.1-5.4v-6.5c-.7,1.8-3.4,3.1-5.7,3.1-6.4,0-9.4-3.9-9.4-11v-19.8c0-7.1,3-11,9.4-11s5.1,1.3,5.9,3.3v-2.7h6.5v44.9c0,7-4,11-10.8,11h0v.1ZM162.45,355.34c0-3.6-1.7-5.4-4.2-5.4s-4.2,1.7-4.2,5.4v19c0,3.6,1.7,5.4,4.2,5.4s4.2-1.7,4.2-5.4v-19Z" fill="#fff"/><path d="M177.05,374.44v-23.5h-3.1v-6.4h3.1v-9.6h6.7v9.6h5.5v6.4h-5.5v22.7c0,3.7,1.4,5.5,5.5,5.2v6.3c-8.8.7-12.2-3.9-12.2-10.7Z" fill="#fff"/><path d="M193.85,338.64v-8h6.7v8h-6.7ZM193.85,385.24v-40.6h6.7v40.6h-6.7Z" fill="#fff"/><path d="M217.95,400.54c-6.8,0-10.8-4-10.8-11v-1.1h6.7v.7c0,3.6,1.6,5.4,4.1,5.4s4.1-1.7,4.1-5.4v-6.5c-.7,1.8-3.4,3.1-5.7,3.1-6.4,0-9.4-3.9-9.4-11v-19.8c0-7.1,3-11,9.4-11s5.1,1.3,5.9,3.3v-2.7h6.5v44.9c0,7-4,11-10.8,11h0v.1ZM222.05,355.34c0-3.6-1.7-5.4-4.2-5.4s-4.2,1.7-4.2,5.4v19c0,3.6,1.7,5.4,4.2,5.4s4.2-1.7,4.2-5.4v-19Z" fill="#fff"/><path d="M261.85,385.24v-33.5c0-4.9.5-11,.5-11h-.2l-7.2,44.5h-6.8l-7.2-44.5h-.2s.5,6.1.5,11v33.5h-6.5v-51.4h10.4l5.4,32.4c.6,3.8.9,10,.9,10h.2s.2-6.2.9-10l5.4-32.4h10.4v51.4h-6.5,0Z" fill="#fff"/><path d="M289.55,385.24c-.2-1-.4-2.1-.5-3.1-1.4,2.4-4,3.8-7.1,3.8s-8.3-3.1-8.3-10,2.7-9.9,8.4-12.8c4.5-2.3,6.5-3.7,6.5-8.2s-.8-4.9-3.4-4.9-3.7,1.8-3.7,5.4v2.4h-6.7v-2.4c0-7,3.8-11.4,10.6-11.4s9.9,5.8,9.9,13v13.7c0,9.1,0,11.6.7,14.5h-6.5.1ZM288.65,364.74c-.7,1-1.7,1.7-3.4,2.8-3.1,1.9-4.6,3.6-4.6,7.4s1.6,4.9,3.7,4.9,4.3-2,4.3-6.1v-8.9h0v-.1Z" fill="#fff"/><path d="M302.15,385.24v-54.6h6.7v54.6h-6.7Z" fill="#fff"/><path d="M325.95,385.84c-6.8,0-10.9-4-10.9-11v-19.8c0-7,4-11,10.8-11s10.9,4,10.9,11v11.8h-15v7.6c0,3.6,1.7,5.4,4.2,5.4s4.1-1.7,4.1-5.4v-2.3h6.7v2.7c0,7-4,11-10.8,11h0ZM329.95,355.34c0-3.6-1.6-5.4-4.1-5.4s-4.1,1.7-4.1,5.4v6h8.2v-6Z" fill="#fff"/><path d="M349.55,359.04v26.2h-6.7v-40.6h6.5v5.1c1.4-3.7,5.1-5.6,9.1-5.4v7c-5-.8-8.9,1.7-8.9,7.7h0Z" fill="#fff"/><path d="M356.25,385.24v-8.1h7.9v8.1h-7.9Z" fill="#fff"/><path d="M385.35,385.24v-2.7c-.8,2-3.5,3.3-5.9,3.3-6.4,0-9.4-3.9-9.4-11v-19.8c0-7.1,3-11,9.4-11s5,1.3,5.7,3.1v-16.5h6.7v54.6h-6.5ZM385.15,355.34c0-3.6-1.7-5.4-4.2-5.4s-4.2,1.7-4.2,5.4v19c0,3.6,1.7,5.4,4.2,5.4s4.2-1.7,4.2-5.4v-19Z" fill="#fff"/><path d="M413.25,385.24l-6.9-20.1-2.4,3.9v16.2h-6.7v-54.6h6.7v29.7h.2s1-2.8,2-4.3l7.2-11.4h7.2l-9.2,14.8,9.5,25.8h-7.6Z" fill="#fff"/><path d="M448.48,151.66c-2.37-7.74-4.9-15.69-7.6-23.77.22,7.74,3.08,15.86,7.6,23.77Z" fill="#e6332a"/><path d="M448.48,151.66c-4.52-7.9-7.38-16.03-7.6-23.77-2.62-7.84-5.39-15.81-8.33-23.83-8.71,12.24-14.8,25.43-14.8,38.38,0,2.15.17,4.3.49,6.45,1.81,5.54,3.47,10.85,4.99,15.9,8.82,18.84,26.75,36.32,42.2,48.93-4.25-17.58-9.87-38.9-16.95-62.06Z" fill="#1d71b8"/><path d="M275.75,204.44c-.17,5.34-.09,10.44.19,15.3h20.41c.7,0,1.3-.4,1.4-1.1,4.01-18.32,8.85-36.31,14.15-53.63-21.67-2.13-35.41,15.26-36.15,39.43Z" fill="#1d1d1b"/><path d="M368.05,261.94c.1.8.7,1.3,1.4,1.3h18.36c1.36-18.16-3.26-42.83-27.46-68.5-2.66-2.82-5.28-5.41-7.86-7.79,7.11,26.14,12.3,51.22,15.56,74.99Z" fill="#1d1d1b"/><path d="M382.1,178.74c-5.99-21.1-13.83-45.17-24.06-71.31-5.65,7-9,13.76-9,20.31,0,17.28,14.96,32.79,33.05,51Z" fill="#dedc00"/><path d="M363.93,100.87c11.21,28.18,20.71,56.55,28.32,84.67.43,1.61.85,3.2,1.27,4.77,15.6,16.11,31.67,34.71,41.55,58.28-4.83-29.72-17.84-91.12-50.14-166.01-8,6.26-15.19,12.35-21,18.29Z" fill="#dedc00"/><path d="M423.23,164.79c2.26,7.47,4.22,14.38,5.92,20.65,10.6,39.3,14.5,66.5,15.7,76.4.1.8.7,1.3,1.4,1.3h27.9c.4,0,.8-.2,1.1-.5h.2c.3-.3.3-.8.3-1.2-.11-.53-3.41-19.19-10.31-47.72-15.46-12.61-33.38-30.08-42.2-48.93Z" fill="#dedc00"/><path d="M432.55,104.05c-5.33-14.55-11.18-29.3-17.58-43.84-8.15,5.97-16.19,11.8-23.7,17.49,11.34,26.18,20.18,50.33,26.97,71.18-.32-2.15-.49-4.3-.49-6.45,0-12.96,6.09-26.14,14.8-38.38Z" fill="#dedc00"/><path d="M265.95,218.04c-.1.4,0,.9.3,1.2.2.3.7.5,1.1.5h8.59c-.29-4.86-.37-9.96-.19-15.3.74-24.17,14.48-41.56,36.15-39.43,9.28-30.32,19.96-58.51,30.04-82.57-15.41,9.33-30.49,18.72-43.56,28.97-16.08,41.73-26.18,78.44-32.43,106.62Z" fill="#063"/><path d="M353.85,75.44c-.2.4-.2.8,0,1.2,3.5,8.05,6.86,16.13,10.08,24.23,5.81-5.93,13-12.03,21-18.29-2.95-6.83-6.05-13.77-9.33-20.81-7.07,4.56-14.34,9.01-21.63,13.42-.04.08-.07.17-.11.25Z" fill="#063"/><path d="M268.25,143.34c-15.14,24.53-20.21,51.88-20.66,76.4h8.76c.7,0,1.3-.4,1.4-1.1l-.1.1c2.4-10.8,5.1-21.9,8.1-33.1,4.76-17.65,11.33-39.25,20.22-63.58-6.98,6.62-13.02,13.65-17.72,21.28Z" fill="#063"/><path d="M360.35,194.74c24.21,25.67,28.83,50.34,27.46,68.5h10.74c.4,0,.8-.2,1.1-.5v-.1c.3-.3.3-.7.3-1.1-1.47-11.43-6.09-41.37-17.85-82.8-18.09-18.2-33.05-33.71-33.05-51,0-6.55,3.35-13.31,9-20.31-2.37-6.06-4.86-12.22-7.5-18.49-.2-.5-.7-.9-1.3-.9-.5,0-1.1.4-1.3.9-5.2,12.1-10.1,24.4-14.7,36.5-.1.3-.1.7,0,1,7.5,20.7,13.91,40.9,19.24,60.51,2.58,2.39,5.2,4.97,7.86,7.79Z" fill="#063"/><path d="M405.63,39.99c-7.25,6.13-15.17,11.9-23.47,17.47,3.2,6.87,6.23,13.62,9.1,20.25,7.52-5.7,15.56-11.53,23.7-17.49-2.99-6.8-6.1-13.55-9.33-20.22Z" fill="#063"/><path d="M407.95,261.94c.1.8.7,1.3,1.4,1.3h26.1c.4,0,.8-.2,1.1-.5l.1-.2c.3-.3.3-.7.3-1.1-.41-3.19-1.01-7.51-1.88-12.85-9.88-23.58-25.95-42.17-41.55-58.28,9.64,36.73,13.28,62.14,14.43,71.63Z" fill="#063"/><path d="M298.38,111.42c13.07-10.25,28.15-19.64,43.56-28.97,4.96-11.82,9.76-22.64,14.19-32.23-15.03,14.45-32.44,27.67-49.4,40.39-2.95,7.06-5.74,14-8.36,20.81Z" fill="#95c11f"/><path d="M252.68,135.42c-11.09,31.83-18.6,59.98-23.63,82.62-.1.4,0,.9.3,1.2.2.3.7.5,1.1.5h17.14c.45-24.52,5.52-51.87,20.66-76.4,4.7-7.63,10.74-14.66,17.72-21.28,2.63-7.19,5.46-14.61,8.5-22.25-15.81,11.95-30.56,23.6-41.8,35.6Z" fill="#95c11f"/><path d="M219.55,219.74c.7,0,1.3-.4,1.4-1.1h-.1c2.4-10.8,5.1-21.9,8.1-33.1,2.48-9.15,5.44-19.39,8.97-30.51-11.48,19.5-17.97,42.84-21.56,64.71h3.2Z" fill="#95c11f"/><path d="M389.45,9.24c-.25-.34-.59-.59-1.04-.67-2.9,5.8-6.37,11.38-10.27,16.78-1.86,3.54-3.73,7.17-5.59,10.88-.2.4-.2.9,0,1.3,3.36,6.73,6.56,13.37,9.61,19.92,8.3-5.57,16.23-11.34,23.47-17.47-5.09-10.51-10.48-20.81-16.19-30.75Z" fill="#95c11f"/><path d="M375.6,61.77c-2.08-4.47-4.23-8.98-6.45-13.53-.2-.5-.8-.8-1.3-.8s-1.1.3-1.3.8c-4.36,8.82-8.52,17.84-12.59,26.95,7.3-4.41,14.57-8.86,21.63-13.42Z" fill="#95c11f"/><path d="M197.95,217.84c-.06.64-.13,1.27-.19,1.9h18.6c3.6-21.87,10.08-45.21,21.56-64.71,4.38-13.82,9.63-29.03,15.88-45.3-36.48,21.45-48.65,34.91-55.84,108.11Z" fill="#009fe3"/><path d="M252.68,135.42c11.24-12,25.99-23.65,41.8-35.6,1.91-4.78,3.91-9.64,5.99-14.57-13,7.36-25.63,13.33-36.07,18.72-4.29,10.82-8.19,21.33-11.72,31.46Z" fill="#009fe3"/><path d="M311.96,78.39c-1.8,4.11-3.54,8.18-5.22,12.22,16.96-12.72,34.37-25.94,49.4-40.39,13.1-28.36,22.86-45.86,23.11-46.28.3-.4.3-1,0-1.4-.2-.4-.7-.7-1.2-.7h-3.89c-10.01,36.55-35.76,59.87-62.2,76.55Z" fill="#009fe3"/><path d="M388.15,8.54c-.6,0-1.1.2-1.3.7-2.82,5.09-5.76,10.49-8.71,16.12,3.91-5.4,7.37-10.98,10.27-16.78-.08-.01-.17-.03-.26-.03Z" fill="#009fe3"/><path d="M174.39,187.3c2.28,8.39,4.38,16.68,6.25,24.84.1.6.7,1.1,1.4,1.1s1.3-.5,1.4-1.2c3.3-18.2,7.8-37.2,13.3-56.4v-.8c-2.47-7.79-5.09-15.59-7.85-23.38-2.65,5.9-4.78,12.4-6.25,19.68-2.7,13.28-5.45,25.28-8.25,36.16Z" fill="#1d71b8"/><path d="M193.79,122.17c1.91,5.25,3.77,10.51,5.56,15.77.2.6.8,1,1.4,1s1.2-.4,1.4-1c3.8-11.7,7.9-23.5,12.4-35.1h-.1c.1-.4.1-.8,0-1.1-.32-.8-.64-1.59-.96-2.38-7.54,6.55-14.28,13.92-19.7,22.81Z" fill="#1d71b8"/><path d="M313.15,2.54c-1.39,2.43-2.75,4.86-4.1,7.28-3.32,8.52-7.43,15.95-12.09,22.57-12.83,24.88-23.57,48.92-32.56,71.57,10.44-5.38,23.07-11.36,36.07-18.72,10.75-25.49,23.85-52.94,39.78-81.31.3-.4.3-1,0-1.4-.2-.4-.7-.7-1.2-.7h-24.6c-.6,0-1,.3-1.3.7Z" fill="#1d71b8"/><path d="M191.75,218.04c-.1.4,0,.8.3,1.2.2.3.7.5,1.1.5h4.61c.06-.63.13-1.26.19-1.9,7.19-73.19,19.37-86.66,55.84-108.11,6.82-17.74,14.84-36.75,24.24-56.59-14.04,12.27-30.01,21.5-44.92,31.51-20.28,51.1-33.82,101.46-41.37,133.39Z" fill="#1d71b8"/><path d="M350.05,2.54c-14.92,26.15-27.48,51.62-38.09,75.85,26.43-16.68,52.18-40,62.2-76.55h-22.81c-.6,0-1,.3-1.3.7Z" fill="#1d71b8"/><path d="M217.75,88.64c.2.5.7.9,1.3.9.5,0,1.1-.4,1.3-.9,4.4-10.8,9.2-21.5,14.2-32,.2-.4.2-.8,0-1.2-1.47-3.24-2.95-6.44-4.45-9.6-6.88,7.03-13.76,14.89-20.42,24.12,2.77,6.2,5.46,12.43,8.06,18.68Z" fill="#2d2e83"/><path d="M108.65,263.14h-.1c.66,0,1.21-.54,1.36-1.18-.52.4-1.05.79-1.58,1.18h.31Z" fill="#2d2e83"/><path d="M268.08,10.71c-13.35,23.42-24.97,48.77-34.96,73.94,14.91-10,30.88-19.23,44.92-31.51,7.55-15.94,15.98-32.41,25.42-49.2.3-.4.3-1,0-1.4-.2-.4-.7-.7-1.2-.7h-25.61c-2.71,3.05-5.58,5.98-8.56,8.87Z" fill="#2d2e83"/><path d="M193.79,122.17c5.41-8.89,12.16-16.26,19.7-22.81-2.91-7.25-5.95-14.48-9.1-21.66-5.65,8.68-11.07,18.49-16.12,29.78,1.89,4.88,3.73,9.78,5.52,14.68Z" fill="#2d2e83"/><path d="M296.96,32.39c4.66-6.62,8.77-14.04,12.09-22.57-4.22,7.59-8.25,15.11-12.09,22.57Z" fill="#2d2e83"/><path d="M171.35,157.84c-.82,3.33-1.69,6.58-2.59,9.77,2,6.62,3.87,13.18,5.64,19.69,2.81-10.88,5.56-22.88,8.25-36.16,1.47-7.28,3.6-13.78,6.25-19.68-1.61-4.55-3.27-9.1-4.97-13.64-4.64,11.77-8.88,24.99-12.58,40.02Z" fill="#2d2e83"/><path d="M41.25,261.54c0,.4.1.8.4,1.1.3.3.7.5,1.1.5h26.1-.1c.7,0,1.4-.6,1.4-1.3.83-6.84,2.95-21.94,7.67-43.57-12.03,4.96-23.52,10.86-32.74,19.58-2.11,11.26-3.27,19.37-3.83,23.69Z" fill="#009fe3"/><path d="M32.05,263.14v.1c.7,0,1.4-.6,1.4-1.3.33-2.73.87-6.78,1.69-12.04-2.48,3.95-4.6,8.33-6.28,13.24h3.18Z" fill="#009fe3"/><path d="M78.05,261.54c0,.4.1.8.4,1.1.3.3.7.5,1.1.5h28.79c.52-.4,1.06-.78,1.58-1.18,0-.04.03-.08.04-.12,2.94-21.13,7-41.65,11.77-61.31-10.64,5.52-22.89,9.65-35.04,14.25-5.34,23.43-7.76,39.89-8.63,46.75Z" fill="#009fe3"/><path d="M194.35,36.24c-.2.4-.2.9,0,1.3,5.3,10.61,10.44,21.46,15.34,32.42,6.65-9.23,13.54-17.09,20.42-24.12-5.7-12.05-11.59-23.48-17.6-34.05-6.46,7.13-12.58,15.11-17.89,23.94-.09.17-.17.34-.26.51Z" fill="#009fe3"/><path d="M188.27,107.48c5.04-11.29,10.47-21.11,16.12-29.78-4.36-9.95-8.92-19.8-13.64-29.46-.2-.5-.8-.8-1.3-.8s-1.1.3-1.3.8c-1,2.11-2,4.24-3.01,6.38-3.38,8.33-5.98,17.26-7.55,26.76,3.71,8.63,7.28,17.34,10.67,26.1Z" fill="#009fe3"/><path d="M168.76,167.61c.9-3.2,1.77-6.44,2.59-9.77,3.7-15.03,7.94-28.25,12.58-40.02-2.73-7.29-5.57-14.55-8.52-21.75-3.76,25.4-6.67,43.31-11.16,57.1,1.56,4.84,3.07,9.65,4.51,14.44Z" fill="#009fe3"/><path d="M272.85,2.54c-1.62,2.69-3.21,5.42-4.77,8.17,2.98-2.89,5.84-5.83,8.56-8.87h-2.59c-.5,0-.9.3-1.2.7Z" fill="#009fe3"/><path d="M45.08,237.85c9.22-8.72,20.71-14.62,32.74-19.58,2.11-9.69,4.75-20.68,8.03-32.83,1.08-3.98,2.24-8.16,3.51-12.53-10.46,4.49-21.32,8.08-31.78,11.33-5.98,21.71-9.94,39.97-12.5,53.61Z" fill="#e6007e"/><path d="M2.75,261.44c-.1.4,0,.9.3,1.2.3.3.7.5,1.1.5h24.72c1.68-4.9,3.8-9.29,6.28-13.24,2.13-13.57,6.2-35.18,13.63-62.96-11.89,3.63-22.91,7.01-31.79,11.02-9.59,37.26-14.12,62.87-14.24,63.48Z" fill="#e6007e"/><path d="M98.9,168.49c-5.19,17.37-9.18,32.96-12.22,46.3,12.14-4.6,24.39-8.73,35.04-14.25C148.96,88.38,199.65,4.95,200.25,3.84c.3-.4.3-1,0-1.4-.2-.4-.7-.7-1.2-.7h-22.34c-9.46,20.16-18.22,50.29-26.76,102.4-5.42,33.17-26.31,51.93-51.05,64.35Z" fill="#e6007e"/><path d="M175.55,76.64c.69,1.58,1.37,3.16,2.05,4.74,1.57-9.51,4.17-18.43,7.55-26.76-3.23,6.85-6.47,13.81-9.59,20.82-.2.4-.2.8,0,1.2Z" fill="#e6007e"/><path d="M171.15,88.04c-.5,0-1.1.4-1.3.9-5.2,12.1-10.1,24.4-14.7,36.5-.1.3-.1.7,0,1,3.23,8.99,6.25,17.9,9.1,26.74,4.49-13.79,7.4-31.71,11.16-57.1-.98-2.38-1.96-4.76-2.96-7.13-.2-.5-.7-.9-1.3-.9Z" fill="#e6007e"/><path d="M212.5,11.8c-.48-.85-.97-1.72-1.45-2.56-.28-.38-.75-.66-1.22-.69-.54.03-.99.22-1.18.69-4.52,8.15-9.23,17.08-14.04,26.49,5.31-8.83,11.43-16.8,17.89-23.94Z" fill="#e6007e"/><path d="M57.58,184.24c10.46-3.25,21.32-6.84,31.78-11.33,3-10.37,6.56-21.79,10.75-34.09-9.11,7.02-20.4,12.75-34.25,17.48-3.11,9.82-5.86,19.16-8.28,27.93Z" fill="#1d71b8"/><path d="M133.9,55.23c7.81-16.61,16.59-33.82,26.45-51.39.3-.4.3-1,0-1.4-.2-.4-.7-.7-1.2-.7h-19.4c-4.68,17.42-5.19,33.92-5.8,52.3-.01.4-.03.79-.05,1.19Z" fill="#1d71b8"/><path d="M16.99,197.96c8.87-4.01,19.9-7.39,31.79-11.02.13-.47.25-.93.37-1.4,2.16-8.02,4.7-16.85,7.66-26.39-9.32,2.7-19.67,5.04-31.14,7.09-3.25,11.22-6.14,21.87-8.67,31.72Z" fill="#1d71b8"/><path d="M170.05,2.44c-14.99,26.25-27.59,51.87-38.2,76.18-2.92,19.83-8.87,35.54-19.15,48.06-5.35,14.8-9.91,28.81-13.8,41.82,24.73-12.42,45.63-31.18,51.05-64.35,8.53-52.11,17.29-82.24,26.76-102.4h-5.36c-.6,0-1,.3-1.3.7Z" fill="#1d71b8"/><path d="M25.66,166.24c11.48-2.05,21.82-4.39,31.14-7.09,2.57-8.28,5.46-17.09,8.69-26.35-11.64,5.91-23.33,10.08-33.69,13.04-2.18,6.97-4.22,13.78-6.14,20.4Z" fill="#83d0f5"/><path d="M130.95,28.34c0,50.99-26.05,80.99-55.19,98.74-3.66,10.14-6.95,19.9-9.9,29.22,13.86-4.74,25.14-10.46,34.25-17.48,8.46-24.83,19.51-53.21,33.79-83.6.02-.4.03-.79.05-1.19.62-18.38,1.13-34.88,5.8-52.3h-5.2c-.6,0-1,.3-1.3.7-1.11,1.94-2.2,3.88-3.28,5.81.61,5.95.98,12.62.98,20.09Z" fill="#83d0f5"/><path d="M112.7,126.67c10.27-12.52,16.22-28.22,19.15-48.06-7.29,16.71-13.63,32.81-19.15,48.06Z" fill="#83d0f5"/><path d="M45.38,105.59c-4.99,13.71-9.51,27.24-13.58,40.25,10.36-2.96,22.06-7.12,33.69-13.04,13.02-37.26,31.7-81.85,58.15-128.96.3-.4.3-1,0-1.4-.2-.4-.7-.7-1.2-.7h-28.2c-.5,0-.9.3-1.2.7-4.52,7.55-8.85,15.34-13,23.28,4.21,7.65,7.5,16.47,7.9,29.62.83,27.48-20.56,42.29-42.57,50.25Z" fill="#2d2e83"/><path d="M130.95,28.34c0-7.48-.37-14.14-.98-20.09-23.71,42.37-41.26,82.94-54.21,118.84,29.14-17.75,55.19-47.75,55.19-98.74Z" fill="#2d2e83"/><path d="M87.95,55.34c-.4-13.15-3.69-21.96-7.9-29.62-13.42,25.7-24.94,53.13-34.67,79.87,22.01-7.96,43.4-22.77,42.57-50.25Z" fill="#1d71b8"/></svg>