<?xml version="1.0" encoding="UTF-8"?><svg id="Layer_1" xmlns="http://www.w3.org/2000/svg" viewBox="0 0 371.74 228.93"><g id="Denmark"><polygon points="159 102.6 159 100.6 135.59 87.08 135.59 116.11 159 102.6" fill="#34662d" stroke-width="0"/><polygon points="160.73 16.53 160.73 16.53 158.98 15.52 135.59 29.03 160.73 43.54 160.73 16.53" fill="#81c17b" stroke-width="0"/><polygon points="110.45 101.6 135.59 87.08 110.45 72.57 110.45 101.6" fill="#81c17b" stroke-width="0"/><path d="M135.59,87.08l21.17-12.22c-.39-.68-.63-1.45-.63-2.29s.24-1.61.63-2.29l-21.16-12.22v29.02Z" fill="#81c17b" stroke-width="0"/><path d="M156.76,74.87l-21.16,12.22,23.39,13.51v-23.8c-.94-.39-1.73-1.05-2.24-1.92Z" fill="#2c9236" stroke-width="0"/><polygon points="135.59 116.11 135.59 87.08 110.45 101.6 135.59 116.11" fill="#2c9236" stroke-width="0"/><path d="M179.1,59.95c-.18-.6-.28-1.23-.28-1.89,0-1.28.37-2.47.97-3.51l-19.06-11.01v24.43c1.05,0,1.99.39,2.76.99l15.61-9.01Z" fill="#2c9236" stroke-width="0"/><polygon points="135.59 29.03 135.59 58.06 160.73 43.54 135.59 29.03" fill="#2c9236" stroke-width="0"/><path d="M135.59,58.06h0s21.16,12.22,21.16,12.22c.8-1.37,2.26-2.31,3.96-2.31,0,0,0,0,0,0v-24.43l-25.14,14.51Z" fill="#34662d" stroke-width="0"/><path d="M213.83,68.99l20.64-11.92-23.45-13.54v24.43c1.07,0,2.03.4,2.81,1.02Z" fill="#34662d" stroke-width="0"/><polygon points="211.01 43.54 236.15 29.03 211.01 14.51 211.01 14.51 211.01 43.54" fill="#2c9236" stroke-width="0"/><polygon points="211.02 43.54 234.47 57.08 236.16 56.1 236.16 29.03 211.02 43.54" fill="#81c17b" stroke-width="0"/><path d="M192.9,58.06c0,.66-.1,1.29-.28,1.89l15.62,9.02c.77-.6,1.71-.99,2.77-.99v-24.43l-19.08,11.02c.6,1.03.96,2.22.96,3.5Z" fill="#81c17b" stroke-width="0"/><rect x="210.99" y="101.59" width="0" height="0" transform="translate(18.11 234.38) rotate(-60.26)" fill="#34662d" stroke-width="0"/><path d="M211.01,77.17s0,0,0,0v24.42l25.12-14.5-21.15-12.21c-.8,1.37-2.26,2.3-3.96,2.3Z" fill="#34662d" stroke-width="0"/><path d="M215.61,72.57c0,.84-.24,1.62-.64,2.3l21.16,12.22v-26.94l-20.6,11.89c.02.18.08.35.08.53Z" fill="#81c17b" stroke-width="0"/><path d="M185.86,65.1c-1.97,0-3.74-.82-5.01-2.13l-15.61,9.02c.03.2.08.39.08.59,0,.84-.24,1.61-.63,2.29l21.17,12.22v-21.99Z" fill="#81c17b" stroke-width="0"/><polygon points="185.86 87.08 185.86 116.11 211 101.6 210.99 101.59 210.99 101.59 185.86 87.08" fill="#81c17b" stroke-width="0"/><path d="M164.69,74.86c-.5.86-1.28,1.52-2.2,1.91v23.81l23.37-13.49-21.17-12.22Z" fill="#2c9236" stroke-width="0"/><path d="M207.05,74.85c-.39-.67-.63-1.45-.63-2.28,0-.2.05-.39.08-.58l-15.63-9.02c-1.27,1.31-3.04,2.13-5.01,2.13v21.99l21.19-12.23Z" fill="#34662d" stroke-width="0"/><path d="M207.05,74.86l-21.18,12.23,25.12,14.5h.01s.01.01.01.01h0v-24.43c-1.7,0-3.17-.94-3.96-2.31Z" fill="#2c9236" stroke-width="0"/><polygon points="162.49 100.58 162.49 102.62 185.86 116.11 185.86 87.08 162.49 100.58" fill="#34662d" stroke-width="0"/><path d="M181.9,31.32c-.39-.68-.63-1.45-.63-2.29,0-.21.06-.39.08-.59l-20.62-11.9v27.01l21.17-12.22Z" fill="#34662d" stroke-width="0"/><path d="M160.74,43.54l19.06,11c.94-1.62,2.48-2.82,4.34-3.29v-18.01c-.93-.39-1.73-1.05-2.23-1.92l-21.16,12.22Z" fill="#81c17b" stroke-width="0"/><path d="M189.83,26.75c.39.67.63,1.45.63,2.28s-.24,1.61-.63,2.28l21.19,12.23V14.51l-21.19,12.23Z" fill="#34662d" stroke-width="0"/><path d="M187.62,33.23v18.04c1.85.48,3.38,1.68,4.32,3.29l19.08-11.02-21.19-12.23c-.5.87-1.29,1.52-2.21,1.92Z" fill="#2c9236" stroke-width="0"/><path d="M185.86,24.43s.01,0,.02,0V0l-23.4,13.51,20.62,11.9c.77-.6,1.71-.98,2.76-.98Z" fill="#34662d" stroke-width="0"/><path d="M189.83,26.75l21.19-12.23h0S185.88,0,185.88,0v24.43c1.7,0,3.16.94,3.95,2.31Z" fill="#81c17b" stroke-width="0"/></g><path d="M2.14,187.13h21.1c4.56,0,8.03,1.08,10.31,3.24,2.28,2.16,3.48,5.27,3.48,9.35s-1.2,7.43-3.72,9.71c-2.52,2.28-6.35,3.48-11.51,3.48h-6.95v15.35H2.02v-41.12h.12ZM14.85,204.64h3.12c2.4,0,4.2-.48,5.16-1.32.96-.84,1.44-1.92,1.44-3.24s-.48-2.4-1.32-3.24c-.84-.84-2.52-1.32-4.92-1.32h-3.6v9.11h.12Z" fill="#fff" stroke-width="0"/><path d="M32.3,152.65c-2.55-1.3-6.78-2.59-12.67-3.86-2.38-.5-3.89-1.03-4.53-1.61-.66-.56-.98-1.18-.98-1.88,0-.95.4-1.76,1.19-2.43.79-.67,1.98-1,3.54-1,1.91,0,3.4.45,4.48,1.34s1.79,2.32,2.13,4.29l12.72-.74c-.56-4.53-2.3-7.83-5.23-9.9-2.93-2.08-7.18-3.11-12.76-3.11-4.55,0-8.13.57-10.74,1.71-2.61,1.14-4.57,2.71-5.87,4.71-1.3,2-1.95,4.12-1.95,6.36,0,3.42,1.27,6.23,3.81,8.43,2.52,2.2,6.74,3.97,12.66,5.3,3.61.79,5.92,1.64,6.91,2.53s1.49,1.91,1.49,3.04c0,1.19-.52,2.24-1.56,3.14-1.04.9-2.53,1.35-4.45,1.35-2.58,0-4.57-.88-5.96-2.65-.85-1.09-1.42-2.68-1.7-4.77l-12.83.81c.38,4.41,2,8.04,4.85,10.9s8,4.29,15.43,4.29c4.23,0,7.73-.61,10.51-1.83s4.94-3.01,6.49-5.38c1.55-2.36,2.32-4.94,2.32-7.74,0-2.38-.58-4.54-1.74-6.46-1.15-1.93-3.01-3.54-5.56-4.84Z" fill="#fff" stroke-width="0"/><rect x="44.79" y="134.49" width="13.52" height="43.67" fill="#fff" stroke-width="0"/><path d="M74.23,176.25c3.27,1.77,7.49,2.65,12.67,2.65,4.21,0,7.85-.49,10.92-1.47s6.6-2.83,10.59-5.56v-18.61h-20.85v9.08h9.02v4.11c-1.77,1.05-3.34,1.8-4.71,2.23-1.37.44-2.81.66-4.32.66-3.18,0-5.65-1.01-7.43-3.04-1.78-2.03-2.67-5.4-2.67-10.13,0-4.45.88-7.7,2.64-9.75s4.12-3.08,7.07-3.08c1.99,0,3.62.44,4.9,1.31,1.28.87,2.19,2.13,2.73,3.78l13.02-2.32c-.79-2.82-1.98-5.15-3.56-6.98-1.58-1.84-3.56-3.19-5.96-4.07-2.39-.87-6-1.31-10.83-1.31s-8.99.71-11.94,2.11c-3.79,1.83-6.67,4.5-8.64,8.03-1.97,3.52-2.95,7.67-2.95,12.44s.9,8.54,2.7,12.03c1.8,3.49,4.33,6.12,7.6,7.89Z" fill="#fff" stroke-width="0"/><path d="M156.52,162.97v-28.48h-12.72v24.16l-16.44-24.16h-12.6v43.67h12.69v-23.98l16.35,23.98h2.9c.8-6.44,4.53-11.96,9.82-15.19Z" fill="#fff" stroke-width="0"/><path d="M188.02,178.16h2.76v-16.2h7.39c5.44,0,9.49-1.24,12.14-3.72,2.65-2.48,3.98-5.93,3.98-10.34s-1.22-7.6-3.65-9.92c-2.43-2.32-6.09-3.48-10.98-3.48h-22.43v27.89c5.81,3.13,9.94,8.94,10.79,15.77ZM190.78,143.37h3.84c2.52,0,4.24.48,5.15,1.43s1.37,2.11,1.37,3.48-.53,2.57-1.58,3.47-2.88,1.35-5.48,1.35h-3.31v-9.73h.01Z" fill="#fff" stroke-width="0"/><path d="M231.96,160.43h1.19c1.23,0,2.33.34,3.31,1.01.71.52,1.53,1.64,2.44,3.37l7.21,13.34h15.25l-6.53-12.65c-.32-.64-.95-1.54-1.89-2.71s-1.66-1.94-2.16-2.3c-.73-.54-1.91-1.07-3.51-1.61,2.01-.46,3.59-1.03,4.74-1.73,1.81-1.09,3.23-2.52,4.26-4.27,1.03-1.76,1.55-3.85,1.55-6.27,0-2.78-.68-5.14-2.03-7.07-1.35-1.94-3.13-3.26-5.33-3.98s-5.39-1.07-9.56-1.07h-22.5v43.67h13.55v-17.73h.01ZM231.96,143.31h5.93c2.46,0,4.14.38,5.03,1.13.89.75,1.34,1.84,1.34,3.25,0,.95-.28,1.8-.85,2.53s-1.3,1.19-2.19,1.37c-1.77.4-2.96.6-3.57.6h-5.69v-8.88h0Z" fill="#fff" stroke-width="0"/><rect x="264.39" y="134.49" width="13.52" height="43.67" fill="#fff" stroke-width="0"/><polygon points="314.46 158.65 298.02 134.49 285.42 134.49 285.42 178.16 298.11 178.16 298.11 154.18 314.46 178.16 327.18 178.16 327.18 134.49 314.46 134.49 314.46 158.65" fill="#fff" stroke-width="0"/><polygon points="330.72 134.49 330.72 145.27 344.48 145.27 344.48 178.16 357.98 178.16 357.98 145.27 371.74 145.27 371.74 134.49 330.72 134.49" fill="#fff" stroke-width="0"/><path d="M173.32,180.33l4.5,1c-.24.83-.46,1.5-.68,2s-.52,1.09-.92,1.77l2.17,1.49c.26.17.6.37,1.02.61l-3.1,3.57c-.57-.3-1.15-.65-1.76-1.05-.61-.4-1.15-.74-1.64-1.02-1,.66-2,1.14-3,1.44-1.39.42-2.96.62-4.73.62-2.77,0-4.82-.58-6.17-1.73s-2.02-2.55-2.02-4.19c0-1.18.4-2.3,1.19-3.35s2.09-1.94,3.89-2.67c-.75-.92-1.27-1.71-1.56-2.39s-.42-1.36-.42-2.06c0-1.47.56-2.69,1.69-3.64,1.12-.95,2.83-1.43,5.11-1.43s4.04.45,5.14,1.36c1.09.91,1.64,1.99,1.64,3.26,0,.71-.17,1.39-.5,2.04s-.74,1.18-1.21,1.59c-.47.41-1.32,1.01-2.53,1.81,1.01,1.01,2.06,1.95,3.16,2.82.28-.58.53-1.2.73-1.85ZM164.64,181.73c-.79.56-1.32,1.03-1.58,1.43-.26.4-.39.82-.39,1.26,0,.69.3,1.3.89,1.84s1.37.81,2.32.81c1.03,0,2.19-.4,3.47-1.2-1.22-.95-2.79-2.32-4.71-4.14ZM166.7,176.69c.75-.41,1.32-.85,1.73-1.32.41-.48.61-.93.61-1.35s-.17-.82-.51-1.12-.81-.46-1.4-.46-1.06.17-1.43.51-.55.74-.55,1.2c-.01.58.51,1.43,1.55,2.54Z" fill="#fff" stroke-width="0"/><path d="M63.52,221.42h-14.51l-2.04,6.83h-12.95l15.47-41.12h13.91l15.47,41.24h-13.31l-2.04-6.95ZM60.89,212.55l-4.56-14.87-4.56,14.87h9.11Z" fill="#fff" stroke-width="0"/><path d="M106.8,211.35l11.15,3.36c-.72,3.12-1.92,5.75-3.6,7.79-1.68,2.04-3.6,3.72-5.99,4.8-2.4,1.08-5.4,1.56-9.11,1.56-4.44,0-8.15-.6-11.03-1.92-2.88-1.32-5.28-3.6-7.31-6.83-2.04-3.24-3.12-7.43-3.12-12.59,0-6.83,1.8-12.11,5.4-15.71,3.6-3.6,8.75-5.52,15.35-5.52,5.16,0,9.23,1.08,12.23,3.12,3,2.04,5.15,5.27,6.59,9.71l-11.27,2.52c-.36-1.2-.84-2.16-1.2-2.76-.72-.96-1.56-1.68-2.64-2.28-1.08-.6-2.16-.84-3.48-.84-2.88,0-5.04,1.2-6.59,3.48-1.2,1.68-1.8,4.44-1.8,8.15,0,4.56.72,7.67,2.04,9.35,1.44,1.68,3.36,2.52,5.88,2.52s4.32-.72,5.51-2.04c1.2-1.32,2.52-3.24,3-5.88Z" fill="#fff" stroke-width="0"/><path d="M154.52,197.16c-3.23-2.52-5.69-5.95-7-9.92l-13.5,15.37v-15.58h-12.71v41.24h12.71v-10.07l6.59-6.83,8.63,16.9h15.71l-15.71-25.66,5.28-5.44Z" fill="#fff" stroke-width="0"/><path d="M191.18,203.12v-16.11h3.34c2.41,0,4.16.19,5.25.58,1.56.55,2.78,1.5,3.66,2.85.88,1.35,1.32,2.96,1.32,4.83,0,1.61-.35,3.03-1.05,4.26-.7,1.23-1.6,2.13-2.72,2.72s-2.67.88-4.68.88h-5.12ZM192.72,201.6h1.86c2.23,0,3.77-.14,4.63-.42,1.21-.39,2.16-1.1,2.86-2.13.69-1.03,1.04-2.28,1.04-3.76,0-1.55-.38-2.88-1.13-3.98s-1.8-1.86-3.14-2.26c-1.01-.31-2.67-.46-4.98-.46h-1.14v13.01Z" fill="#fff" stroke-width="0"/><path d="M207.88,187.01h9.23v1.58h-7.62v5.05h7.56v1.58h-7.56v6.33h7.56v1.58h-9.17v-16.11Z" fill="#fff" stroke-width="0"/><path d="M219.9,203.12v-16.11h.35l10.72,12.35v-12.35h1.59v16.11h-.36l-10.63-12.2v12.2h-1.66Z" fill="#fff" stroke-width="0"/><path d="M235.75,203.12l2.31-16.11h.26l6.55,13.22,6.49-13.22h.26l2.32,16.11h-1.58l-1.59-11.52-5.7,11.52h-.41l-5.76-11.61-1.58,11.61h-1.55Z" fill="#fff" stroke-width="0"/><path d="M263.67,187.01l7.51,16.11h-1.74l-2.53-5.3h-6.94l-2.51,5.3h-1.8l7.61-16.11h.39ZM263.47,190.43l-2.76,5.83h5.51l-2.75-5.83Z" fill="#fff" stroke-width="0"/><path d="M273.77,187.01h3.21c1.79,0,3,.07,3.64.22.96.22,1.73.69,2.33,1.41.6.72.9,1.61.9,2.66,0,.88-.21,1.65-.62,2.31-.41.67-1,1.17-1.77,1.51s-1.83.51-3.18.52l5.79,7.48h-1.99l-5.79-7.48h-.91v7.48h-1.61v-16.11ZM275.37,188.59v5.48l2.77.02c1.07,0,1.87-.1,2.39-.31.52-.2.92-.53,1.21-.98.29-.45.43-.95.43-1.51s-.15-1.03-.44-1.47-.68-.76-1.15-.95c-.48-.19-1.27-.29-2.37-.29h-2.84Z" fill="#fff" stroke-width="0"/><path d="M287.29,187.01h1.64v6.04l6.44-6.04h2.16l-7.74,7.23,8.34,8.88h-2.14l-7.06-7.5v7.5h-1.64v-16.11Z" fill="#fff" stroke-width="0"/><path d="M193.16,217.45h-1.54c.04-1.59.57-2.89,1.59-3.91,1.02-1.02,2.28-1.53,3.77-1.53s2.68.48,3.6,1.43c.92.96,1.37,2.08,1.37,3.39,0,.91-.22,1.77-.66,2.57s-1.28,1.88-2.54,3.25l-4.01,4.32h7.43v1.55h-10.94l6.15-6.65c1.25-1.34,2.06-2.33,2.44-2.97s.56-1.33.56-2.04c0-.91-.34-1.69-1.01-2.34-.68-.65-1.5-.98-2.48-.98-1.03,0-1.89.34-2.57,1.03-.68.69-1.07,1.65-1.17,2.89Z" fill="#fff" stroke-width="0"/><path d="M203.7,220.47c0-2.12.23-3.77.68-4.93.46-1.16,1.1-2.04,1.93-2.64.83-.6,1.76-.9,2.79-.9s1.99.3,2.84.9c.85.6,1.52,1.51,2.01,2.71s.74,2.82.74,4.85-.24,3.63-.73,4.83-1.16,2.1-2.01,2.71-1.8.91-2.85.91-1.96-.3-2.78-.89c-.83-.59-1.47-1.47-1.93-2.64-.46-1.17-.7-2.81-.7-4.92ZM205.23,220.5c0,1.82.16,3.2.49,4.13.32.93.8,1.64,1.44,2.12s1.31.72,2.01.72,1.38-.24,2-.71c.62-.47,1.09-1.18,1.41-2.12.4-1.15.6-2.53.6-4.14s-.18-2.95-.54-3.98c-.36-1.03-.85-1.79-1.48-2.27-.63-.48-1.3-.72-2-.72s-1.39.24-2.01.72c-.63.48-1.11,1.18-1.43,2.12s-.49,2.31-.49,4.14Z" fill="#fff" stroke-width="0"/><path d="M218.02,217.45h-1.54c.04-1.59.57-2.89,1.59-3.91,1.02-1.02,2.28-1.53,3.77-1.53s2.68.48,3.6,1.43c.92.96,1.37,2.08,1.37,3.39,0,.91-.22,1.77-.66,2.57s-1.28,1.88-2.54,3.25l-4.01,4.32h7.43v1.55h-10.94l6.15-6.65c1.25-1.34,2.06-2.33,2.44-2.97s.56-1.33.56-2.04c0-.91-.34-1.69-1.01-2.34-.68-.65-1.5-.98-2.48-.98-1.03,0-1.89.34-2.57,1.03-.68.69-1.07,1.65-1.17,2.89Z" fill="#fff" stroke-width="0"/><path d="M237.4,212.01h.33v11.23h1.95v1.53h-1.95v3.75h-1.6v-3.75h-7.71l8.98-12.77ZM236.13,223.24v-6.77l-4.77,6.77h4.77Z" fill="#fff" stroke-width="0"/></svg>