<?xml version="1.0" encoding="UTF-8"?><svg id="Layer_1" xmlns="http://www.w3.org/2000/svg" viewBox="0 0 371.74 256.54"><g id="Norge_2020"><g id="Norge_logo"><polygon points="158.86 102.6 158.86 100.6 135.45 87.08 135.45 116.11 158.86 102.6" fill="#cd0b2a" stroke-width="0"/><polygon points="160.59 16.53 160.59 16.53 158.84 15.52 135.45 29.03 160.59 43.54 160.59 16.53" fill="#ec6664" stroke-width="0"/><polygon points="110.32 101.6 135.45 87.08 110.32 72.57 110.32 101.6" fill="#ec6664" stroke-width="0"/><path d="M135.45,87.08l21.17-12.22c-.39-.68-.63-1.45-.63-2.29s.24-1.61.63-2.29l-21.16-12.22v29.02Z" fill="#ec6664" stroke-width="0"/><path d="M156.62,74.87l-21.16,12.22,23.39,13.51v-23.8c-.94-.39-1.73-1.05-2.24-1.92Z" fill="#e52d1e" stroke-width="0"/><polygon points="135.45 116.11 135.45 87.08 110.32 101.6 135.45 116.11" fill="#e52d1e" stroke-width="0"/><path d="M178.96,59.95c-.18-.6-.28-1.23-.28-1.89,0-1.28.37-2.47.97-3.51l-19.06-11.01v24.43c1.05,0,1.99.39,2.76.99l15.61-9.01Z" fill="#e52d1e" stroke-width="0"/><polygon points="135.45 29.03 135.45 58.06 160.59 43.54 135.45 29.03" fill="#e52d1e" stroke-width="0"/><path d="M135.45,58.06h0s21.16,12.22,21.16,12.22c.8-1.37,2.26-2.31,3.96-2.31,0,0,0,0,0,0v-24.43l-25.14,14.51Z" fill="#cd0b2a" stroke-width="0"/><path d="M213.69,68.99l20.64-11.92-23.45-13.54v24.43c1.07,0,2.03.4,2.81,1.02Z" fill="#cd0b2a" stroke-width="0"/><polygon points="210.88 43.54 236.01 29.03 210.88 14.51 210.88 14.51 210.88 43.54" fill="#e52d1e" stroke-width="0"/><polygon points="210.89 43.54 234.33 57.08 236.02 56.1 236.02 29.03 210.89 43.54" fill="#ec6664" stroke-width="0"/><path d="M192.76,58.06c0,.66-.1,1.29-.28,1.89l15.62,9.02c.77-.6,1.71-.99,2.77-.99v-24.43l-19.08,11.02c.6,1.03.96,2.22.96,3.5Z" fill="#ec6664" stroke-width="0"/><rect x="210.85" y="101.59" width="0" height="0" transform="translate(18.04 234.26) rotate(-60.26)" fill="#cd0b2a" stroke-width="0"/><path d="M210.88,77.17s0,0,0,0v24.42l25.12-14.5-21.15-12.21c-.8,1.37-2.26,2.3-3.96,2.3Z" fill="#cd0b2a" stroke-width="0"/><path d="M215.47,72.57c0,.84-.24,1.62-.64,2.3l21.16,12.22v-26.94l-20.6,11.89c.02.18.08.35.08.53Z" fill="#ec6664" stroke-width="0"/><path d="M185.72,65.1c-1.97,0-3.74-.82-5.01-2.13l-15.61,9.02c.03.2.08.39.08.59,0,.84-.24,1.61-.63,2.29l21.17,12.22v-21.99Z" fill="#ec6664" stroke-width="0"/><polygon points="185.72 87.08 185.72 116.11 210.86 101.6 210.85 101.59 210.85 101.59 185.72 87.08" fill="#ec6664" stroke-width="0"/><path d="M164.55,74.86c-.5.86-1.28,1.52-2.2,1.91v23.81l23.37-13.49-21.17-12.22Z" fill="#e52d1e" stroke-width="0"/><path d="M206.91,74.85c-.39-.67-.63-1.45-.63-2.28,0-.2.05-.39.08-.58l-15.63-9.02c-1.27,1.31-3.04,2.13-5.01,2.13v21.99l21.19-12.23Z" fill="#cd0b2a" stroke-width="0"/><path d="M206.91,74.86l-21.18,12.23,25.12,14.5h.01s.01.01.01.01h0v-24.43c-1.7,0-3.17-.94-3.96-2.31Z" fill="#e52d1e" stroke-width="0"/><polygon points="162.35 100.58 162.35 102.62 185.72 116.11 185.72 87.08 162.35 100.58" fill="#cd0b2a" stroke-width="0"/><path d="M181.76,31.32c-.39-.68-.63-1.45-.63-2.29,0-.21.06-.39.08-.59l-20.62-11.9v27.01l21.17-12.22Z" fill="#cd0b2a" stroke-width="0"/><path d="M160.6,43.54l19.06,11c.94-1.62,2.48-2.82,4.34-3.29v-18.01c-.93-.39-1.73-1.05-2.23-1.92l-21.16,12.22Z" fill="#ec6664" stroke-width="0"/><path d="M189.69,26.75c.39.67.63,1.45.63,2.28s-.24,1.61-.63,2.28l21.19,12.23V14.51l-21.19,12.23Z" fill="#cd0b2a" stroke-width="0"/><path d="M187.48,33.23v18.04c1.85.48,3.38,1.68,4.32,3.29l19.08-11.02-21.19-12.23c-.5.87-1.29,1.52-2.21,1.92Z" fill="#e52d1e" stroke-width="0"/><path d="M185.72,24.43s.01,0,.02,0V0l-23.4,13.51,20.62,11.9c.77-.6,1.71-.98,2.76-.98Z" fill="#cd0b2a" stroke-width="0"/><path d="M189.69,26.75l21.19-12.23h0S185.74,0,185.74,0v24.43c1.7,0,3.16.94,3.95,2.31Z" fill="#ec6664" stroke-width="0"/></g></g><path d="M32.3,152.83c-2.55-1.3-6.78-2.59-12.67-3.86-2.38-.5-3.89-1.03-4.53-1.61-.66-.56-.98-1.18-.98-1.88,0-.95.4-1.76,1.19-2.43.79-.67,1.98-1,3.54-1,1.91,0,3.4.45,4.48,1.34,1.08.89,1.79,2.32,2.13,4.29l12.72-.74c-.56-4.53-2.3-7.83-5.23-9.9-2.93-2.08-7.18-3.11-12.76-3.11-4.55,0-8.13.57-10.74,1.71-2.61,1.14-4.57,2.71-5.87,4.71-1.3,2-1.95,4.12-1.95,6.36,0,3.42,1.27,6.23,3.81,8.43,2.52,2.2,6.74,3.97,12.66,5.3,3.61.79,5.92,1.64,6.91,2.53.99.89,1.49,1.91,1.49,3.04,0,1.19-.52,2.24-1.56,3.14-1.04.9-2.53,1.35-4.45,1.35-2.58,0-4.57-.88-5.96-2.65-.85-1.09-1.42-2.68-1.7-4.77l-12.84.8c.38,4.41,2,8.04,4.85,10.9s8,4.29,15.43,4.29c4.23,0,7.73-.61,10.51-1.83,2.78-1.22,4.94-3.01,6.49-5.38,1.55-2.36,2.32-4.94,2.32-7.74,0-2.38-.58-4.54-1.74-6.46-1.16-1.93-3.02-3.54-5.57-4.84Z" fill="#fff" stroke-width="0"/><rect x="44.79" y="134.67" width="13.52" height="43.67" fill="#fff" stroke-width="0"/><path d="M74.23,176.43c3.27,1.77,7.49,2.65,12.67,2.65,4.21,0,7.85-.49,10.92-1.47,3.07-.98,6.6-2.83,10.59-5.56v-18.62h-20.85v9.08h9.02v4.11c-1.77,1.05-3.34,1.8-4.71,2.23-1.37.44-2.81.66-4.32.66-3.18,0-5.65-1.01-7.43-3.04-1.78-2.03-2.67-5.4-2.67-10.13,0-4.45.88-7.7,2.64-9.75,1.76-2.05,4.12-3.08,7.07-3.08,1.99,0,3.62.44,4.9,1.31,1.28.87,2.19,2.13,2.73,3.78l13.02-2.32c-.79-2.82-1.98-5.15-3.56-6.98-1.58-1.84-3.56-3.19-5.96-4.07-2.39-.87-6-1.31-10.83-1.31s-8.99.71-11.94,2.11c-3.79,1.83-6.67,4.5-8.64,8.03-1.97,3.52-2.95,7.67-2.95,12.44s.9,8.54,2.7,12.03c1.8,3.5,4.33,6.13,7.6,7.89Z" fill="#fff" stroke-width="0"/><path d="M156.52,163.15v-28.47h-12.72v24.16l-16.44-24.16h-12.6v43.67h12.69v-23.98l16.35,23.98h2.9c.8-6.44,4.53-11.96,9.82-15.19Z" fill="#fff" stroke-width="0"/><path d="M188.02,178.34h2.76v-16.2h7.39c5.44,0,9.49-1.24,12.14-3.72,2.65-2.48,3.98-5.93,3.98-10.34s-1.22-7.6-3.65-9.92c-2.43-2.32-6.09-3.48-10.98-3.48h-22.43v27.89c5.81,3.13,9.94,8.94,10.79,15.77ZM190.78,143.55h3.84c2.52,0,4.24.48,5.15,1.43.91.95,1.37,2.11,1.37,3.48s-.53,2.57-1.58,3.47c-1.05.9-2.88,1.35-5.48,1.35h-3.31v-9.74Z" fill="#fff" stroke-width="0"/><path d="M231.96,160.62h1.19c1.23,0,2.33.34,3.31,1.01.71.52,1.53,1.64,2.44,3.37l7.21,13.34h15.25l-6.53-12.65c-.32-.64-.95-1.54-1.89-2.71-.94-1.17-1.66-1.94-2.16-2.3-.73-.54-1.91-1.07-3.51-1.61,2.01-.46,3.59-1.03,4.74-1.73,1.81-1.09,3.23-2.52,4.26-4.27,1.03-1.76,1.55-3.85,1.55-6.27,0-2.78-.68-5.14-2.03-7.07-1.35-1.94-3.13-3.26-5.33-3.98s-5.39-1.07-9.56-1.07h-22.49v43.67h13.55v-17.72ZM231.96,143.49h5.93c2.46,0,4.14.38,5.03,1.13.89.75,1.34,1.84,1.34,3.25,0,.95-.28,1.8-.85,2.53-.57.73-1.3,1.19-2.19,1.37-1.77.4-2.96.6-3.57.6h-5.69v-8.88Z" fill="#fff" stroke-width="0"/><rect x="264.39" y="134.67" width="13.52" height="43.67" fill="#fff" stroke-width="0"/><polygon points="314.46 158.83 298.02 134.67 285.42 134.67 285.42 178.34 298.11 178.34 298.11 154.36 314.46 178.34 327.18 178.34 327.18 134.67 314.46 134.67 314.46 158.83" fill="#fff" stroke-width="0"/><polygon points="330.72 134.67 330.72 145.46 344.48 145.46 344.48 178.34 357.98 178.34 357.98 145.46 371.74 145.46 371.74 134.67 330.72 134.67" fill="#fff" stroke-width="0"/><path d="M23.09,187.32H2.03v41.02h12.73v-15.22h6.94c5.11,0,8.91-1.17,11.4-3.5,2.49-2.33,3.74-5.57,3.74-9.71s-1.14-7.13-3.43-9.32c-2.28-2.18-5.72-3.27-10.31-3.27ZM23.01,203.54c-.99.85-2.7,1.27-5.15,1.27h-3.11v-9.15h3.61c2.37,0,3.98.45,4.84,1.34s1.29,1.99,1.29,3.27-.49,2.41-1.48,3.26Z" fill="#fff" stroke-width="0"/><path d="M73.21,213.91c-.89-1.1-1.56-1.82-2.03-2.16-.69-.5-1.79-1.01-3.3-1.51,1.88-.43,3.37-.97,4.45-1.62,1.7-1.03,3.03-2.36,4-4.02.97-1.65,1.46-3.61,1.46-5.89,0-2.61-.63-4.83-1.9-6.64-1.27-1.82-2.94-3.06-5.01-3.74-2.07-.67-5.06-1.01-8.98-1.01h-21.12v41.02h12.73v-16.65h1.12c1.16,0,2.19.32,3.11.95.67.49,1.44,1.54,2.29,3.16l6.77,12.53h14.32l-6.14-11.89c-.3-.6-.89-1.45-1.78-2.55ZM64.26,202.09c-.53.69-1.22,1.12-2.06,1.29-1.66.37-2.78.56-3.36.56h-5.34v-8.34h5.57c2.31,0,3.89.35,4.73,1.06s1.26,1.73,1.26,3.05c0,.9-.27,1.69-.8,2.38Z" fill="#fff" stroke-width="0"/><path d="M102.35,186.62c-6.66,0-11.85,1.87-15.58,5.6s-5.6,8.94-5.6,15.64c0,4.79.94,8.79,2.83,11.97,1.88,3.19,4.34,5.52,7.37,7,3.03,1.47,6.86,2.21,11.48,2.21s8.35-.85,11.4-2.56c3.05-1.71,5.38-4.09,6.99-7.16s2.42-7,2.42-11.79c0-6.6-1.85-11.74-5.54-15.4s-8.95-5.5-15.78-5.5ZM108.76,216.9c-1.49,1.77-3.6,2.66-6.32,2.66s-4.74-.9-6.28-2.71c-1.54-1.81-2.31-4.79-2.31-8.93s.77-7.17,2.32-8.98c1.55-1.81,3.6-2.71,6.16-2.71s4.78.89,6.34,2.67c1.56,1.78,2.34,4.6,2.34,8.46,0,4.59-.75,7.77-2.24,9.54Z" fill="#fff" stroke-width="0"/><path d="M167.36,201.75c-.99,0-1.96-.09-2.92-.23v26.81h10.38v-27.99c-2.32.89-4.83,1.4-7.46,1.4Z" fill="#fff" stroke-width="0"/><path d="M151.78,212.28l-6.43-24.96h-16.67v41.02h10.38v-31.28l7.98,31.28h9.4l6.9-26.98c-2.9-.57-5.57-1.74-7.91-3.37l-3.65,14.29Z" fill="#fff" stroke-width="0"/><path d="M200.89,186.62c-6.66,0-11.85,1.87-15.58,5.6-3.73,3.73-5.6,8.94-5.6,15.64,0,4.79.94,8.79,2.83,11.97s4.34,5.52,7.37,7,6.86,2.21,11.49,2.21,8.35-.85,11.4-2.56c3.05-1.71,5.38-4.09,7-7.16,1.61-3.07,2.42-7,2.42-11.79,0-6.6-1.85-11.74-5.54-15.4s-8.95-5.5-15.78-5.5ZM207.29,216.9c-1.49,1.77-3.6,2.66-6.32,2.66s-4.74-.9-6.28-2.71c-1.54-1.81-2.31-4.79-2.31-8.93s.77-7.17,2.32-8.98c1.55-1.81,3.6-2.71,6.16-2.71s4.78.89,6.34,2.67,2.34,4.6,2.34,8.46c0,4.59-.75,7.77-2.24,9.54Z" fill="#fff" stroke-width="0"/><polygon points="224.07 197.45 237 197.45 237 228.34 249.67 228.34 249.67 197.45 262.6 197.45 262.6 187.32 224.07 187.32 224.07 197.45" fill="#fff" stroke-width="0"/><rect x="266.29" y="187.32" width="12.7" height="41.02" fill="#fff" stroke-width="0"/><path d="M305.5,186.62c-6.66,0-11.85,1.87-15.58,5.6-3.73,3.73-5.6,8.94-5.6,15.64,0,4.79.94,8.79,2.83,11.97s4.34,5.52,7.37,7,6.86,2.21,11.49,2.21,8.35-.85,11.4-2.56c3.05-1.71,5.38-4.09,7-7.16,1.61-3.07,2.42-7,2.42-11.79,0-6.6-1.85-11.74-5.54-15.4s-8.95-5.5-15.78-5.5ZM311.91,216.9c-1.49,1.77-3.6,2.66-6.32,2.66s-4.74-.9-6.28-2.71c-1.54-1.81-2.31-4.79-2.31-8.93s.77-7.17,2.32-8.98c1.55-1.81,3.6-2.71,6.16-2.71s4.78.89,6.34,2.67,2.34,4.6,2.34,8.46c0,4.59-.75,7.77-2.24,9.54Z" fill="#fff" stroke-width="0"/><polygon points="359.21 210.01 343.77 187.32 331.93 187.32 331.93 228.34 343.85 228.34 343.85 205.82 359.21 228.34 371.16 228.34 371.16 187.32 359.21 187.32 359.21 210.01" fill="#fff" stroke-width="0"/><path d="M173.33,180.51l4.5,1c-.24.83-.46,1.5-.68,2-.22.5-.52,1.09-.92,1.77l2.17,1.49c.26.17.6.37,1.02.61l-3.1,3.57c-.57-.3-1.15-.65-1.76-1.05-.61-.4-1.15-.74-1.64-1.02-1,.66-2,1.14-3,1.44-1.39.42-2.96.62-4.73.62-2.77,0-4.82-.58-6.17-1.73-1.35-1.15-2.02-2.55-2.02-4.19,0-1.18.4-2.3,1.19-3.35s2.09-1.94,3.89-2.67c-.75-.92-1.27-1.71-1.56-2.39s-.42-1.36-.42-2.06c0-1.47.56-2.69,1.69-3.64,1.12-.95,2.83-1.43,5.11-1.43s4.04.45,5.14,1.36c1.09.91,1.64,1.99,1.64,3.26,0,.71-.17,1.39-.5,2.04-.33.65-.74,1.18-1.21,1.59-.47.41-1.32,1.01-2.53,1.81,1.01,1.01,2.06,1.95,3.16,2.82.29-.58.54-1.2.75-1.85ZM164.65,181.92c-.79.56-1.32,1.03-1.58,1.43-.26.4-.39.82-.39,1.26,0,.69.3,1.3.89,1.84s1.37.81,2.32.81c1.03,0,2.19-.4,3.47-1.2-1.23-.94-2.8-2.32-4.72-4.13ZM166.7,176.87c.75-.41,1.32-.85,1.73-1.32.41-.48.61-.93.61-1.35s-.17-.82-.51-1.12-.81-.46-1.4-.46-1.06.17-1.43.51-.55.74-.55,1.2c0,.58.52,1.43,1.56,2.55Z" fill="#fff" stroke-width="0"/><path d="M99.29,256.12v-16.47h.36l10.96,12.62v-12.62h1.62v16.47h-.37l-10.87-12.47v12.47h-1.7Z" fill="#fff" stroke-width="0"/><path d="M124.08,239.24c2.49,0,4.58.83,6.26,2.5s2.52,3.71,2.52,6.15-.84,4.46-2.51,6.13c-1.68,1.68-3.72,2.52-6.13,2.52s-4.5-.84-6.18-2.51c-1.68-1.67-2.52-3.69-2.52-6.07,0-1.58.38-3.05,1.15-4.4.77-1.35,1.81-2.41,3.13-3.17s2.75-1.15,4.29-1.15ZM124.15,240.84c-1.22,0-2.37.32-3.46.95-1.09.64-1.94,1.49-2.56,2.57-.61,1.08-.92,2.27-.92,3.6,0,1.96.68,3.61,2.03,4.96,1.36,1.35,2.99,2.02,4.91,2.02,1.28,0,2.46-.31,3.55-.93s1.94-1.47,2.55-2.54c.61-1.08.91-2.27.91-3.59s-.3-2.49-.91-3.55c-.61-1.06-1.47-1.9-2.57-2.54s-2.28-.95-3.52-.95Z" fill="#fff" stroke-width="0"/><path d="M136.25,239.66h3.28c1.83,0,3.07.07,3.72.22.98.22,1.77.7,2.38,1.44.61.74.92,1.64.92,2.72,0,.9-.21,1.69-.63,2.36s-1.02,1.19-1.81,1.54c-.78.35-1.87.53-3.25.53l5.92,7.64h-2.04l-5.92-7.64h-.93v7.64h-1.65v-16.47ZM137.9,241.27v5.6l2.84.02c1.1,0,1.91-.1,2.44-.31s.94-.54,1.23-1c.29-.46.44-.97.44-1.54s-.15-1.05-.45-1.51c-.3-.45-.69-.77-1.18-.97s-1.29-.29-2.42-.29h-2.9Z" fill="#fff" stroke-width="0"/><path d="M149.19,239.66h1.69l3.36,11.87,4.72-11.87h.34l4.67,11.87,3.42-11.87h1.68l-4.73,16.47h-.31l-4.89-12.46-4.98,12.46h-.31l-4.67-16.47Z" fill="#fff" stroke-width="0"/><path d="M177.18,239.66l7.68,16.47h-1.78l-2.59-5.42h-7.09l-2.57,5.42h-1.84l7.78-16.47h.4ZM176.97,243.15l-2.82,5.96h5.63l-2.81-5.96Z" fill="#fff" stroke-width="0"/><path d="M183.31,239.66h1.89l4.21,6.79,4.15-6.79h1.9l-5.22,8.6v7.87h-1.62v-7.87l-5.32-8.6Z" fill="#fff" stroke-width="0"/><path d="M205.17,244.81h-1.58c.04-1.62.59-2.96,1.63-4,1.04-1.04,2.33-1.56,3.86-1.56s2.74.49,3.68,1.47c.94.98,1.4,2.13,1.4,3.46,0,.93-.22,1.81-.67,2.63-.45.82-1.31,1.92-2.6,3.32l-4.1,4.42h7.6v1.59h-11.18l6.29-6.8c1.28-1.37,2.11-2.38,2.49-3.04.38-.66.58-1.36.58-2.09,0-.93-.35-1.72-1.04-2.39-.69-.67-1.54-1-2.54-1-1.05,0-1.93.35-2.62,1.05-.7.7-1.1,1.69-1.19,2.95Z" fill="#fff" stroke-width="0"/><path d="M215.95,247.9c0-2.17.23-3.85.7-5.04s1.13-2.09,1.98-2.7c.85-.61,1.8-.92,2.85-.92s2.03.31,2.9.92c.87.62,1.55,1.54,2.05,2.77.5,1.23.76,2.88.76,4.96s-.25,3.71-.74,4.94c-.5,1.22-1.18,2.15-2.05,2.77-.87.62-1.84.93-2.91.93s-2-.3-2.84-.91c-.84-.61-1.5-1.51-1.98-2.7-.47-1.2-.71-2.88-.71-5.03ZM217.51,247.92c0,1.86.17,3.27.5,4.22.33.95.82,1.67,1.47,2.17.65.49,1.34.74,2.06.74s1.41-.24,2.05-.72,1.12-1.2,1.44-2.17c.41-1.17.62-2.58.62-4.23s-.18-3.02-.55-4.07-.87-1.83-1.52-2.32c-.64-.49-1.33-.73-2.04-.73s-1.42.24-2.06.73c-.64.49-1.13,1.21-1.47,2.16-.34.95-.5,2.36-.5,4.23Z" fill="#fff" stroke-width="0"/><path d="M230.58,244.81h-1.58c.05-1.62.59-2.96,1.63-4s2.33-1.56,3.86-1.56,2.74.49,3.68,1.47c.94.98,1.4,2.13,1.4,3.46,0,.93-.22,1.81-.67,2.63-.45.82-1.31,1.92-2.6,3.32l-4.1,4.42h7.6v1.59h-11.18l6.29-6.8c1.28-1.37,2.11-2.38,2.49-3.04.38-.66.58-1.36.58-2.09,0-.93-.35-1.72-1.04-2.39-.69-.67-1.54-1-2.54-1-1.05,0-1.93.35-2.63,1.05-.7.7-1.1,1.69-1.19,2.95Z" fill="#fff" stroke-width="0"/><path d="M251.91,239.66v1.57h-5.85l-.82,4.49c.72-.21,1.36-.32,1.93-.32,1.5,0,2.73.5,3.71,1.51s1.46,2.29,1.46,3.86c0,1.08-.25,2.07-.75,2.98-.5.9-1.18,1.6-2.03,2.08-.85.48-1.84.72-2.96.72-1.34,0-2.46-.41-3.38-1.23-.92-.82-1.47-1.88-1.65-3.17h1.69c.13.64.34,1.15.64,1.55.3.4.7.71,1.21.96s1.03.36,1.58.36c1.08,0,2.01-.41,2.79-1.23.78-.82,1.16-1.84,1.16-3.07,0-1.11-.35-2.01-1.05-2.71-.7-.69-1.64-1.04-2.81-1.04-.97,0-2.15.29-3.53.88l1.52-8.18h7.13Z" fill="#fff" stroke-width="0"/></svg>