<?xml version="1.0" encoding="UTF-8" standalone="no"?>
<!DOCTYPE svg PUBLIC "-//W3C//DTD SVG 1.1//EN" "http://www.w3.org/Graphics/SVG/1.1/DTD/svg11.dtd">
<svg width="100%" height="100%" viewBox="0 0 1632 933" version="1.1" xmlns="http://www.w3.org/2000/svg" xmlns:xlink="http://www.w3.org/1999/xlink" xml:space="preserve" xmlns:serif="http://www.serif.com/" style="fill-rule:evenodd;clip-rule:evenodd;stroke-linejoin:round;stroke-miterlimit:2;">
    <g id="Artboard1" transform="matrix(0.890864,0,0,0.913501,-258.259,-9.41154)">
        <rect x="289.897" y="10.303" width="1831.83" height="1021.28" style="fill:none;"/>
        <g id="Layer-1" serif:id="Layer 1" transform="matrix(4.67711,0,0,4.56121,-183.84,-41.6099)">
            <g transform="matrix(1,0,0,1,273.246,59.5522)">
                <path d="M0,0.002L-12.509,-7.218L-25.016,-14.443L-25.016,14.445L-12.509,7.223L0,0.002Z" style="fill:rgb(158,193,112);fill-rule:nonzero;"/>
            </g>
            <g transform="matrix(1,0,0,1,248.23,45.1098)">
                <path d="M0,0.002L12.506,-7.221L25.013,-14.442L25.013,14.444L12.506,7.22L0,0.002Z" style="fill:rgb(66,88,133);fill-rule:nonzero;"/>
            </g>
            <g transform="matrix(1,0,0,1,326.951,28.01)">
                <path d="M0,28.887L12.508,21.667L25.018,14.445L12.508,7.225L0,0L0,28.887Z" style="fill:rgb(158,193,112);fill-rule:nonzero;"/>
            </g>
            <g transform="matrix(1,0,0,1,351.969,71.3386)">
                <path d="M0,-28.884L0,0L-12.51,-7.22L-25.018,-14.442L-12.51,-21.661L0,-28.884Z" style="fill:rgb(66,88,133);fill-rule:nonzero;"/>
            </g>
            <g transform="matrix(1,0,0,1,301.935,134.865)">
                <path d="M0,-28.883L0,0L12.51,-7.22L25.017,-14.442L12.51,-21.662L0,-28.883Z" style="fill:rgb(66,88,133);fill-rule:nonzero;"/>
            </g>
            <g transform="matrix(1,0,0,1,301.935,105.983)">
                <path d="M0,28.883L-25.014,14.441L-12.507,7.221L0,0L0,28.883Z" style="fill:rgb(84,161,176);fill-rule:nonzero;"/>
            </g>
            <g transform="matrix(1,0,0,1,273.246,117.327)">
                <path d="M0,-0.002L-12.509,-7.223L-25.016,-14.445L-25.016,14.443L-12.509,7.219L0,-0.002Z" style="fill:rgb(84,161,176);fill-rule:nonzero;"/>
            </g>
            <g transform="matrix(1,0,0,1,223.213,117.327)">
                <path d="M0,-0.002L12.509,-7.223L25.017,-14.445L25.017,14.443L12.509,7.219L0,-0.002Z" style="fill:rgb(158,193,112);fill-rule:nonzero;"/>
            </g>
            <g transform="matrix(1,0,0,1,248.23,102.881)">
                <path d="M0,0.001L-12.51,-7.22L-25.016,-14.443L-25.016,14.444L-12.51,7.223L0,0.001Z" style="fill:rgb(66,88,133);fill-rule:nonzero;"/>
            </g>
            <g transform="matrix(1,0,0,1,300.1,14.3366)">
                <path d="M0,24.827C0.655,24.827 1.271,24.971 1.835,25.216L1.835,-0.768L-10.672,6.455L-23.179,13.674L-10.672,20.898L-2.535,25.595C-1.809,25.111 -0.938,24.827 0,24.827" style="fill:rgb(84,161,176);fill-rule:nonzero;"/>
            </g>
            <g transform="matrix(1,0,0,1,314.443,34.0681)">
                <path d="M0,-13.278L-12.509,-20.499L-12.509,5.485C-11.674,5.853 -10.977,6.459 -10.49,7.221L0,1.167L12.508,-6.058L0,-13.278Z" style="fill:rgb(66,88,133);fill-rule:nonzero;"/>
            </g>
            <g transform="matrix(1,0,0,1,314.443,49.6759)">
                <path d="M0,-14.441L-10.49,-8.387C-10.038,-7.676 -9.767,-6.838 -9.767,-5.935C-9.767,-5.839 -9.79,-5.75 -9.795,-5.654L0,0.001L12.508,7.221L12.508,-21.662L0,-14.441Z" style="fill:rgb(84,161,176);fill-rule:nonzero;"/>
            </g>
            <g transform="matrix(1,0,0,1,295.522,46.4782)">
                <path d="M0,-2.737C0,-2.807 0.016,-2.87 0.021,-2.938L-9.767,-8.59L-22.275,-15.811L-22.275,13.074L-9.767,5.851L0.756,-0.223C0.279,-0.946 0,-1.807 0,-2.737" style="fill:rgb(84,161,176);fill-rule:nonzero;"/>
            </g>
            <g transform="matrix(1,0,0,1,314.443,63.6593)">
                <path d="M0,-13.982L-9.795,-19.639C-9.903,-17.889 -10.979,-16.403 -12.509,-15.731L-12.509,3.477C-11.128,3.846 -9.917,4.616 -9.003,5.657L0,0.459L12.508,-6.762L0,-13.982Z" style="fill:rgb(158,193,112);fill-rule:nonzero;"/>
            </g>
            <g transform="matrix(1,0,0,1,298.262,50.3857)">
                <path d="M0,16.751L0,-2.457C-0.812,-2.815 -1.5,-3.397 -1.984,-4.132L-12.507,1.944L-25.015,9.168L-12.507,16.39L-4.727,20.883C-3.887,18.864 -2.142,17.322 0,16.751" style="fill:rgb(66,88,133);fill-rule:nonzero;"/>
            </g>
            <g transform="matrix(1,0,0,1,326.951,57.5128)">
                <path d="M0,26.35L0,-0.616L-12.508,6.605L-21.511,11.804C-20.414,13.056 -19.743,14.691 -19.743,16.484C-19.743,16.61 -19.757,16.736 -19.763,16.861L-12.508,21.048L-2.257,26.966C-1.59,26.585 -0.825,26.35 0,26.35" style="fill:rgb(66,88,133);fill-rule:nonzero;"/>
            </g>
            <g transform="matrix(1,0,0,1,339.459,77.2602)">
                <path d="M0,-13.142L-12.508,-20.363L-12.508,6.603C-11.682,6.603 -10.917,6.837 -10.25,7.221L0,1.304L12.51,-5.921L0,-13.142Z" style="fill:rgb(84,161,176);fill-rule:nonzero;"/>
            </g>
            <g transform="matrix(1,0,0,1,339.459,98.7619)">
                <path d="M0,-14.445L-7.979,-9.841C-8.153,-8.188 -9.189,-6.801 -10.646,-6.15L0,-0.002L12.51,7.221L12.51,-21.666L0,-14.445Z" style="fill:rgb(66,88,133);fill-rule:nonzero;"/>
            </g>
            <g transform="matrix(1,0,0,1,339.459,114.276)">
                <path d="M0,-15.516L-10.646,-21.664C-11.215,-21.409 -11.843,-21.262 -12.508,-21.262L-12.508,6.148L0,-1.073L12.51,-8.294L0,-15.516Z" style="fill:rgb(84,161,176);fill-rule:nonzero;"/>
            </g>
            <g transform="matrix(1,0,0,1,325.09,120.424)">
                <path d="M0,-27.812L-10.646,-21.664L-23.155,-14.442L-10.646,-7.221L1.861,0L1.861,-27.406C1.197,-27.406 0.568,-27.554 0,-27.812" style="fill:rgb(158,193,112);fill-rule:nonzero;"/>
            </g>
            <g transform="matrix(1,0,0,1,322.424,96.0274)">
                <path d="M0,-7.106L-7.979,-11.71L-17.248,-17.061C-18.125,-16.163 -19.238,-15.506 -20.489,-15.171L-20.489,9.955L-7.979,2.733L2.666,-3.415C1.209,-4.067 0.175,-5.453 0,-7.106" style="fill:rgb(84,161,176);fill-rule:nonzero;"/>
            </g>
            <g transform="matrix(1,0,0,1,293.535,74.3386)">
                <path d="M0,-3.07L-7.78,-7.563L-20.289,-14.784L-20.289,11.463C-19.726,11.214 -19.107,11.073 -18.453,11.073C-17.61,11.073 -16.831,11.317 -16.153,11.714L-7.78,6.879L0,2.387C-0.35,1.546 -0.543,0.626 -0.543,-0.341C-0.543,-1.31 -0.35,-2.231 0,-3.07" style="fill:rgb(158,193,112);fill-rule:nonzero;"/>
            </g>
            <g transform="matrix(1,0,0,1,273.246,61.0973)">
                <path d="M0,24.704L0,-1.545L-12.509,5.678L-25.016,12.9L-12.509,20.121L-1.892,26.249C-1.415,25.578 -0.763,25.038 0,24.704" style="fill:rgb(84,161,176);fill-rule:nonzero;"/>
            </g>
            <g transform="matrix(1,0,0,1,270.506,86.8903)">
                <path d="M0,3.099C0,2.112 0.317,1.204 0.849,0.46L-9.769,-5.672L-22.275,-12.893L-22.275,15.992L-9.769,8.771L0.002,3.128C0.002,3.119 0,3.11 0,3.099" style="fill:rgb(66,88,133);fill-rule:nonzero;"/>
            </g>
            <g transform="matrix(1,0,0,1,270.509,117.325)">
                <path d="M0,-27.307L-9.772,-21.664L-22.279,-14.443L-9.772,-7.221L2.737,0L2.737,-23.15C1.133,-23.852 0.013,-25.445 0,-27.307" style="fill:rgb(158,193,112);fill-rule:nonzero;"/>
            </g>
            <g transform="matrix(1,0,0,1,289.428,114.305)">
                <path d="M0,-15.545L-10.6,-21.664C-11.078,-20.981 -11.736,-20.435 -12.507,-20.096L-12.507,6.119L0,-1.102L12.509,-8.323L0,-15.545Z" style="fill:rgb(158,193,112);fill-rule:nonzero;"/>
            </g>
            <g transform="matrix(1,0,0,1,300.1,105.057)">
                <path d="M0,-23.952C-1.277,-23.952 -2.467,-24.29 -3.502,-24.877L-10.672,-20.74L-20.446,-15.095C-20.446,-15.076 -20.439,-15.057 -20.439,-15.039C-20.439,-14.06 -20.75,-13.162 -21.271,-12.416L-10.672,-6.297L1.835,0.925L1.835,-24.201C1.248,-24.042 0.636,-23.952 0,-23.952" style="fill:rgb(66,88,133);fill-rule:nonzero;"/>
            </g>
            <g transform="matrix(1,0,0,1,104.634,164.276)">
                <path d="M0,14.954L12.994,14.139C13.274,16.252 13.849,17.858 14.713,18.963C16.119,20.755 18.132,21.648 20.744,21.648C22.696,21.648 24.198,21.19 25.252,20.276C26.308,19.361 26.833,18.3 26.833,17.096C26.833,15.949 26.333,14.924 25.327,14.018C24.32,13.115 21.988,12.259 18.331,11.456C12.342,10.108 8.069,8.322 5.518,6.09C2.945,3.858 1.658,1.014 1.658,-2.444C1.658,-4.714 2.315,-6.859 3.631,-8.881C4.951,-10.901 6.931,-12.49 9.572,-13.645C12.216,-14.8 15.838,-15.379 20.444,-15.379C26.091,-15.379 30.396,-14.328 33.364,-12.228C36.327,-10.126 38.091,-6.785 38.652,-2.202L25.778,-1.448C25.436,-3.438 24.717,-4.885 23.625,-5.792C22.527,-6.694 21.016,-7.148 19.086,-7.148C17.499,-7.148 16.299,-6.81 15.497,-6.136C14.694,-5.463 14.29,-4.643 14.29,-3.679C14.29,-2.976 14.623,-2.341 15.288,-1.78C15.928,-1.2 17.458,-0.653 19.87,-0.15C25.84,1.136 30.116,2.436 32.7,3.751C35.282,5.068 37.163,6.703 38.337,8.654C39.514,10.602 40.101,12.784 40.101,15.195C40.101,18.031 39.317,20.642 37.75,23.034C36.182,25.428 33.99,27.239 31.174,28.478C28.361,29.713 24.814,30.333 20.531,30.333C13.014,30.333 7.808,28.885 4.912,25.99C2.019,23.097 0.381,19.415 0,14.954Z" style="fill:white;fill-rule:nonzero;"/>
            </g>
            <g transform="matrix(1,0,0,1,-14.1732,55.679)">
                <rect x="165.338" y="93.972" width="13.688" height="44.203" style="fill:white;"/>
            </g>
            <g transform="matrix(1,0,0,1,195.646,165.661)">
                <path d="M0,12.182L0,2.987L21.104,2.987L21.104,21.83C17.064,24.584 13.491,26.459 10.385,27.456C7.279,28.449 3.597,28.945 -0.664,28.945C-5.912,28.945 -10.188,28.051 -13.494,26.262C-16.799,24.475 -19.363,21.811 -21.182,18.273C-23.001,14.736 -23.911,10.674 -23.911,6.092C-23.911,1.266 -22.915,-2.928 -20.927,-6.498C-18.937,-10.063 -16.023,-12.772 -12.184,-14.623C-9.189,-16.048 -5.157,-16.763 -0.091,-16.763C4.793,-16.763 8.446,-16.318 10.869,-15.437C13.291,-14.551 15.303,-13.181 16.899,-11.319C18.496,-9.463 19.698,-7.105 20.502,-4.25L7.324,-1.897C6.782,-3.568 5.863,-4.843 4.567,-5.728C3.27,-6.611 1.616,-7.053 -0.394,-7.053C-3.39,-7.053 -5.772,-6.015 -7.553,-3.933C-9.333,-1.853 -10.22,1.437 -10.22,5.941C-10.22,10.725 -9.324,14.141 -7.524,16.193C-5.725,18.244 -3.218,19.266 0,19.266C1.525,19.266 2.983,19.047 4.37,18.605C5.76,18.161 7.347,17.41 9.138,16.341L9.138,12.182L0,12.182Z" style="fill:white;fill-rule:nonzero;"/>
            </g>
            <g transform="matrix(1,0,0,1,344.634,176.822)">
                <path d="M0,-8.381L5.761,-8.381C6.382,-8.381 7.589,-8.581 9.379,-8.983C10.282,-9.166 11.021,-9.629 11.595,-10.371C12.167,-11.116 12.452,-11.971 12.452,-12.935C12.452,-14.36 12.001,-15.459 11.093,-16.22C10.19,-16.985 8.492,-17.366 6.002,-17.366L0,-17.366L0,-8.381ZM-13.721,17.91L-13.721,-26.291L9.047,-26.291C13.269,-26.291 16.493,-25.93 18.726,-25.207C20.956,-24.485 22.754,-23.142 24.121,-21.18C25.488,-19.221 26.172,-16.835 26.172,-14.019C26.172,-11.568 25.65,-9.452 24.601,-7.671C23.557,-5.893 22.117,-4.451 20.288,-3.347C19.121,-2.644 17.521,-2.06 15.493,-1.599C17.119,-1.054 18.305,-0.509 19.047,0.033C19.551,0.395 20.279,1.167 21.23,2.357C22.187,3.546 22.825,4.459 23.147,5.103L29.763,17.91L14.325,17.91L7.025,4.402C6.103,2.655 5.275,1.518 4.553,0.995C3.567,0.313 2.45,-0.03 1.207,-0.03L0,-0.03L0,17.91L-13.721,17.91Z" style="fill:white;fill-rule:nonzero;"/>
            </g>
            <g transform="matrix(1,0,0,1,-14.1732,57.437)">
                <rect x="394.557" y="93.094" width="13.692" height="44.201" style="fill:white;"/>
            </g>
            <g transform="matrix(1,0,0,1,400.747,194.732)">
                <path d="M0,-44.201L12.755,-44.201L29.401,-19.746L29.401,-44.201L42.274,-44.201L42.274,0L29.401,0L12.846,-24.269L12.846,0L0,0L0,-44.201Z" style="fill:white;fill-rule:nonzero;"/>
            </g>
            <g transform="matrix(1,0,0,1,447.589,194.732)">
                <path d="M0,-44.201L41.517,-44.201L41.517,-33.286L27.587,-33.286L27.587,0L13.929,0L13.929,-33.286L0,-33.286L0,-44.201Z" style="fill:white;fill-rule:nonzero;"/>
            </g>
            <g transform="matrix(1,0,0,1,310.12,177.568)">
                <path d="M0,-9.257C-1.065,-8.344 -2.918,-7.885 -5.549,-7.885L-8.897,-7.885L-8.897,-17.745L-5.007,-17.745C-2.452,-17.745 -0.715,-17.263 0.21,-16.299C1.135,-15.333 1.595,-14.159 1.595,-12.771C1.595,-11.343 1.062,-10.172 0,-9.257M11.199,-23.202C8.739,-25.555 5.032,-26.73 0.089,-26.73L-22.615,-26.73L-22.615,-18.803C-18.524,-15.421 -15.917,-10.307 -15.917,-4.584C-15.917,1.138 -18.524,6.251 -22.615,9.633L-22.615,17.473L-8.897,17.473L-8.897,1.072L-1.417,1.072C4.089,1.072 8.185,-0.187 10.868,-2.699C13.556,-5.213 14.896,-8.7 14.896,-13.162C14.896,-17.506 13.664,-20.851 11.199,-23.202" style="fill:white;fill-rule:nonzero;"/>
            </g>
            <g transform="matrix(1,0,0,1,257.571,170.607)">
                <path d="M0,2.333C0,-4.308 3.51,-10.125 8.774,-13.372L8.774,-20.934L-4.101,-20.934L-4.101,3.52L-20.746,-20.934L-33.499,-20.934L-33.499,23.267L-20.654,23.267L-20.654,-1.002L-4.101,23.267L8.774,23.267L8.774,18.036C3.51,14.789 0,8.971 0,2.333" style="fill:white;fill-rule:nonzero;"/>
            </g>
            <g transform="matrix(1,0,0,1,274.82,175.837)">
                <path d="M0,-6.839C0.591,-7.254 1.049,-7.704 1.371,-8.193C1.693,-8.68 1.855,-9.142 1.855,-9.572C1.855,-10.026 1.719,-10.41 1.451,-10.724C1.182,-11.037 0.807,-11.191 0.336,-11.191C-0.128,-11.191 -0.505,-11.019 -0.799,-10.672C-1.093,-10.324 -1.238,-9.914 -1.238,-9.443C-1.238,-8.846 -0.824,-7.977 0,-6.839M-1.631,-1.692C-2.263,-1.124 -2.679,-0.634 -2.887,-0.23C-3.093,0.173 -3.196,0.603 -3.196,1.057C-3.196,1.76 -2.96,2.385 -2.486,2.937C-2.015,3.485 -1.399,3.761 -0.641,3.761C0.176,3.761 1.095,3.351 2.114,2.533C1.14,1.567 -0.109,0.161 -1.631,-1.692M5.261,-3.123L8.838,-2.097C8.65,-1.247 8.473,-0.568 8.298,-0.058C8.129,0.454 7.883,1.057 7.569,1.75L9.29,3.27C9.499,3.444 9.77,3.649 10.099,3.89L7.635,7.536C7.186,7.226 6.718,6.873 6.235,6.466C5.751,6.059 5.319,5.714 4.936,5.424C4.142,6.101 3.349,6.591 2.553,6.9C1.451,7.325 0.197,7.536 -1.206,7.536C-3.402,7.536 -5.037,6.95 -6.107,5.771C-7.182,4.596 -7.716,3.167 -7.716,1.49C-7.716,0.286 -7.4,-0.855 -6.771,-1.93C-6.143,-3.004 -5.111,-3.914 -3.679,-4.656C-4.278,-5.589 -4.692,-6.402 -4.914,-7.093C-5.141,-7.782 -5.253,-8.483 -5.253,-9.199C-5.253,-10.7 -4.81,-11.941 -3.915,-12.914C-3.021,-13.888 -1.67,-14.375 0.146,-14.375C1.997,-14.375 3.357,-13.911 4.229,-12.986C5.096,-12.059 5.531,-10.949 5.531,-9.659C5.531,-8.938 5.399,-8.24 5.136,-7.577C4.868,-6.911 4.545,-6.37 4.171,-5.958C3.797,-5.541 3.127,-4.925 2.158,-4.106C2.962,-3.074 3.797,-2.116 4.668,-1.23C4.898,-1.827 5.096,-2.458 5.261,-3.123" style="fill:white;fill-rule:nonzero;"/>
            </g>
            <g transform="matrix(1,0,0,1,103.435,207.92)">
                <path d="M0,18.668L2.526,17.15C4.306,20.427 6.364,22.064 8.695,22.064C9.691,22.064 10.63,21.833 11.507,21.368C12.382,20.902 13.05,20.279 13.507,19.497C13.969,18.715 14.197,17.884 14.197,17.011C14.197,16.011 13.858,15.032 13.185,14.076C12.256,12.757 10.556,11.165 8.089,9.304C5.605,7.429 4.063,6.073 3.458,5.239C2.406,3.835 1.88,2.319 1.88,0.689C1.88,-0.606 2.19,-1.786 2.809,-2.85C3.429,-3.915 4.303,-4.755 5.428,-5.369C6.554,-5.982 7.78,-6.288 9.098,-6.288C10.501,-6.288 11.814,-5.942 13.033,-5.247C14.251,-4.553 15.545,-3.276 16.906,-1.414L14.478,0.427C13.359,-1.057 12.407,-2.033 11.617,-2.506C10.83,-2.978 9.969,-3.214 9.04,-3.214C7.84,-3.214 6.857,-2.85 6.096,-2.121C5.334,-1.394 4.954,-0.499 4.954,0.567C4.954,1.213 5.09,1.843 5.357,2.449C5.628,3.054 6.122,3.717 6.834,4.43C7.225,4.807 8.505,5.797 10.676,7.401C13.252,9.304 15.02,10.995 15.977,12.478C16.932,13.962 17.413,15.453 17.413,16.949C17.413,19.106 16.594,20.981 14.956,22.572C13.317,24.16 11.324,24.956 8.979,24.956C7.173,24.956 5.535,24.474 4.063,23.513C2.593,22.547 1.239,20.933 0,18.668" style="fill:white;fill-rule:nonzero;"/>
            </g>
            <g transform="matrix(1,0,0,1,154.842,226.608)">
                <path d="M0,-18.706L-2.347,-16.906C-3.641,-18.594 -5.195,-19.871 -7.008,-20.74C-8.82,-21.607 -10.813,-22.044 -12.983,-22.044C-15.357,-22.044 -17.554,-21.473 -19.575,-20.333C-21.598,-19.195 -23.166,-17.664 -24.278,-15.745C-25.391,-13.822 -25.95,-11.662 -25.95,-9.264C-25.95,-5.635 -24.704,-2.609 -22.216,-0.18C-19.728,2.245 -16.589,3.461 -12.803,3.461C-8.636,3.461 -5.15,1.829 -2.347,-1.435L0,0.346C-1.483,2.231 -3.333,3.69 -5.55,4.723C-7.769,5.753 -10.245,6.269 -12.983,6.269C-18.189,6.269 -22.294,4.537 -25.3,1.07C-27.822,-1.854 -29.084,-5.387 -29.084,-9.525C-29.084,-13.881 -27.555,-17.544 -24.5,-20.518C-21.446,-23.489 -17.622,-24.975 -13.025,-24.975C-10.245,-24.975 -7.739,-24.427 -5.501,-23.327C-3.264,-22.228 -1.429,-20.688 0,-18.706" style="fill:white;fill-rule:nonzero;"/>
            </g>
            <g transform="matrix(1,0,0,1,172.589,225.81)">
                <path d="M0,-17.109L-5.099,-6.341L5.07,-6.341L0,-17.109ZM0.375,-23.429L14.248,6.32L11.036,6.32L6.356,-3.468L-6.456,-3.468L-11.091,6.32L-14.41,6.32L-0.355,-23.429L0.375,-23.429Z" style="fill:white;fill-rule:nonzero;"/>
            </g>
            <g transform="matrix(1,0,0,1,191.469,202.381)">
                <path d="M0,29.749L0,0L0.646,0L20.444,22.805L20.444,0L23.379,0L23.379,29.749L22.71,29.749L3.074,7.223L3.074,29.749L0,29.749Z" style="fill:white;fill-rule:nonzero;"/>
            </g>
            <g transform="matrix(1,0,0,1,224.938,205.193)">
                <path d="M0,24.124L3.438,24.124C7.551,24.124 10.402,23.869 11.991,23.356C14.229,22.631 15.99,21.321 17.271,19.426C18.552,17.533 19.194,15.218 19.194,12.486C19.194,9.617 18.497,7.163 17.11,5.131C15.72,3.096 13.785,1.704 11.305,0.95C9.443,0.383 6.377,0.101 2.103,0.101L0,0.101L0,24.124ZM-2.851,26.937L-2.851,-2.813L3.316,-2.813C7.768,-2.813 10.995,-2.456 13.004,-1.742C15.887,-0.73 18.145,1.022 19.768,3.518C21.394,6.01 22.205,8.984 22.205,12.435C22.205,15.416 21.561,18.037 20.273,20.301C18.986,22.568 17.316,24.238 15.258,25.316C13.203,26.397 10.321,26.937 6.611,26.937L-2.851,26.937Z" style="fill:white;fill-rule:nonzero;"/>
            </g>
            <g transform="matrix(1,0,0,1,-14.1732,146.685)">
                <rect x="266.657" y="55.696" width="2.971" height="29.749" style="fill:white;"/>
            </g>
            <g transform="matrix(1,0,0,1,262.291,202.381)">
                <path d="M0,29.749L0,0L0.646,0L20.444,22.805L20.444,0L23.379,0L23.379,29.749L22.711,29.749L3.073,7.223L3.073,29.749L0,29.749Z" style="fill:white;fill-rule:nonzero;"/>
            </g>
            <g transform="matrix(1,0,0,1,304.688,225.81)">
                <path d="M0,-17.109L-5.1,-6.341L5.07,-6.341L0,-17.109ZM0.377,-23.429L14.25,6.32L11.037,6.32L6.359,-3.468L-6.456,-3.468L-11.09,6.32L-14.409,6.32L-0.353,-23.429L0.377,-23.429Z" style="fill:white;fill-rule:nonzero;"/>
            </g>
            <g transform="matrix(1,0,0,1,316.797,232.13)">
                <path d="M0,-29.749L3.234,-29.749L13.094,-6.766L23.114,-29.749L26.35,-29.749L13.406,0L12.759,0L0,-29.749Z" style="fill:white;fill-rule:nonzero;"/>
            </g>
            <g transform="matrix(1,0,0,1,-14.1732,146.685)">
                <rect x="361.888" y="55.696" width="2.974" height="29.749" style="fill:white;"/>
            </g>
            <g transform="matrix(1,0,0,1,369.286,225.81)">
                <path d="M0,-17.109L-5.1,-6.341L5.069,-6.341L0,-17.109ZM0.373,-23.429L14.248,6.32L11.035,6.32L6.354,-3.468L-6.458,-3.468L-11.096,6.32L-14.41,6.32L-0.352,-23.429L0.373,-23.429Z" style="fill:white;fill-rule:nonzero;"/>
            </g>
            <g transform="matrix(1,0,0,1,405.272,222.08)">
                <path d="M0,-10.397L-2.854,-10.397C-2.77,-13.329 -1.79,-15.738 0.091,-17.621C1.971,-19.506 4.293,-20.447 7.056,-20.447C9.795,-20.447 12.008,-19.564 13.7,-17.796C15.394,-16.03 16.237,-13.944 16.237,-11.545C16.237,-9.859 15.838,-8.278 15.029,-6.802C14.22,-5.323 12.655,-3.325 10.331,-0.803L2.918,7.18L16.644,7.18L16.644,10.05L-3.562,10.05L7.805,-2.233C10.11,-4.702 11.61,-6.537 12.308,-7.73C13.001,-8.923 13.345,-10.182 13.345,-11.503C13.345,-13.179 12.723,-14.616 11.479,-15.824C10.229,-17.034 8.703,-17.639 6.896,-17.639C4.997,-17.639 3.412,-17.002 2.155,-15.735C0.894,-14.467 0.174,-12.689 0,-10.397" style="fill:white;fill-rule:nonzero;"/>
            </g>
            <g transform="matrix(1,0,0,1,427.558,217.191)">
                <path d="M0,0.126C0,3.486 0.302,6.024 0.901,7.745C1.5,9.464 2.387,10.771 3.561,11.662C4.735,12.55 5.974,12.996 7.282,12.996C8.602,12.996 9.837,12.562 10.981,11.689C12.127,10.818 12.998,9.514 13.591,7.775C14.333,5.657 14.703,3.105 14.703,0.126C14.703,-2.872 14.377,-5.323 13.71,-7.229C13.052,-9.144 12.14,-10.539 10.973,-11.422C9.806,-12.308 8.576,-12.75 7.282,-12.75C5.96,-12.75 4.718,-12.308 3.561,-11.422C2.399,-10.539 1.516,-9.237 0.91,-7.518C0.304,-5.796 0,-3.25 0,0.126M-2.811,0.074C-2.811,-3.849 -2.39,-6.883 -1.548,-9.027C-0.702,-11.171 0.487,-12.796 2.022,-13.9C3.561,-15.008 5.28,-15.559 7.179,-15.559C9.11,-15.559 10.854,-15.003 12.418,-13.892C13.981,-12.78 15.22,-11.111 16.129,-8.885C17.039,-6.662 17.493,-3.675 17.493,0.074C17.493,3.808 17.045,6.781 16.147,8.993C15.252,11.203 14.017,12.87 12.439,13.996C10.858,15.123 9.11,15.685 7.179,15.685C5.28,15.685 3.568,15.14 2.043,14.049C0.519,12.955 -0.67,11.33 -1.529,9.165C-2.384,7 -2.811,3.97 -2.811,0.074" style="fill:white;fill-rule:nonzero;"/>
            </g>
            <g transform="matrix(1,0,0,1,450.318,221.616)">
                <path d="M0,-10.205L-2.799,-10.205C-2.72,-13.084 -1.755,-15.452 0.089,-17.301C1.937,-19.151 4.216,-20.075 6.93,-20.075C9.617,-20.075 11.792,-19.208 13.454,-17.473C15.116,-15.736 15.945,-13.69 15.945,-11.334C15.945,-9.68 15.549,-8.123 14.758,-6.674C13.967,-5.225 12.429,-3.262 10.145,-0.784L2.866,7.05L16.343,7.05L16.343,9.87L-3.494,9.87L7.666,-2.189C9.93,-4.616 11.403,-6.413 12.083,-7.587C12.766,-8.76 13.105,-9.994 13.105,-11.29C13.105,-12.935 12.495,-14.349 11.27,-15.538C10.045,-16.722 8.546,-17.315 6.771,-17.315C4.905,-17.315 3.354,-16.692 2.116,-15.448C0.877,-14.204 0.172,-12.456 0,-10.205" style="fill:white;fill-rule:nonzero;"/>
            </g>
            <g transform="matrix(1,0,0,1,473.617,221.616)">
                <path d="M0,-10.205L-2.799,-10.205C-2.72,-13.084 -1.756,-15.452 0.089,-17.301C1.937,-19.151 4.216,-20.075 6.93,-20.075C9.617,-20.075 11.792,-19.208 13.454,-17.473C15.115,-15.736 15.945,-13.69 15.945,-11.334C15.945,-9.68 15.549,-8.123 14.758,-6.674C13.967,-5.225 12.428,-3.262 10.145,-0.784L2.866,7.05L16.343,7.05L16.343,9.87L-3.494,9.87L7.665,-2.189C9.93,-4.616 11.402,-6.413 12.083,-7.587C12.766,-8.76 13.105,-9.994 13.105,-11.29C13.105,-12.935 12.494,-14.349 11.27,-15.538C10.045,-16.722 8.546,-17.315 6.771,-17.315C4.905,-17.315 3.353,-16.692 2.115,-15.448C0.877,-14.204 0.172,-12.456 0,-10.205" style="fill:white;fill-rule:nonzero;"/>
            </g>
        </g>
    </g>
</svg>
